<svg width="740" height="428" viewBox="0 0 740 428" fill="none" xmlns="http://www.w3.org/2000/svg">
<path d="M176.562 133H167.188H157.812H148.438H139.062V123.625H129.688V114.25V104.875H139.062H148.438V114.25V123.625H157.812H167.188H176.562V114.25V104.875V95.5H167.188H157.812H148.438H139.062V86.125H148.438H157.812H167.188H176.562V76.75V67.375H167.188H157.812H148.438V76.75H139.062H129.688V67.375H139.062V58H148.438H157.812H167.188H176.562H185.938V67.375H195.312V76.75V86.125H185.938V95.5H195.312V104.875V114.25V123.625H185.938V133H176.562Z" fill="url(#paint0_linear_365_6242)"/>
<path d="M139.062 133H138.062V134H139.062V133ZM139.062 123.625H140.062V122.625H139.062V123.625ZM129.688 123.625H128.688V124.625H129.688V123.625ZM129.688 104.875V103.875H128.688V104.875H129.688ZM148.438 104.875H149.438V103.875H148.438V104.875ZM148.438 123.625H147.438V124.625H148.438V123.625ZM176.562 123.625V124.625H177.562V123.625H176.562ZM176.562 95.5H177.562V94.5H176.562V95.5ZM139.062 95.5H138.062V96.5H139.062V95.5ZM139.062 86.125V85.125H138.062V86.125H139.062ZM176.562 86.125V87.125H177.562V86.125H176.562ZM176.562 67.375H177.562V66.375H176.562V67.375ZM148.438 67.375V66.375H147.438V67.375H148.438ZM148.438 76.75V77.75H149.438V76.75H148.438ZM129.688 76.75H128.688V77.75H129.688V76.75ZM129.688 67.375V66.375H128.688V67.375H129.688ZM139.062 67.375V68.375H140.062V67.375H139.062ZM139.062 58V57H138.062V58H139.062ZM185.938 58H186.938V57H185.938V58ZM185.938 67.375H184.938V68.375H185.938V67.375ZM195.312 67.375H196.312V66.375H195.312V67.375ZM195.312 86.125V87.125H196.312V86.125H195.312ZM185.938 86.125V85.125H184.938V86.125H185.938ZM185.938 95.5H184.938V96.5H185.938V95.5ZM195.312 95.5H196.312V94.5H195.312V95.5ZM195.312 123.625V124.625H196.312V123.625H195.312ZM185.938 123.625V122.625H184.938V123.625H185.938ZM185.938 133V134H186.938V133H185.938ZM176.562 132H167.188V134H176.562V132ZM167.188 132H157.812V134H167.188V132ZM157.812 132H148.438V134H157.812V132ZM148.438 132H139.062V134H148.438V132ZM140.062 133V123.625H138.062V133H140.062ZM139.062 122.625H129.688V124.625H139.062V122.625ZM130.688 123.625V114.25H128.688V123.625H130.688ZM130.688 114.25V104.875H128.688V114.25H130.688ZM129.688 105.875H139.062V103.875H129.688V105.875ZM139.062 105.875H148.438V103.875H139.062V105.875ZM147.438 104.875V114.25H149.438V104.875H147.438ZM147.438 114.25V123.625H149.438V114.25H147.438ZM148.438 124.625H157.812V122.625H148.438V124.625ZM157.812 124.625H167.188V122.625H157.812V124.625ZM167.188 124.625H176.562V122.625H167.188V124.625ZM177.562 123.625V114.25H175.562V123.625H177.562ZM177.562 114.25V104.875H175.562V114.25H177.562ZM177.562 104.875V95.5H175.562V104.875H177.562ZM176.562 94.5H167.188V96.5H176.562V94.5ZM167.188 94.5H157.812V96.5H167.188V94.5ZM157.812 94.5H148.438V96.5H157.812V94.5ZM148.438 94.5H139.062V96.5H148.438V94.5ZM140.062 95.5V86.125H138.062V95.5H140.062ZM139.062 87.125H148.438V85.125H139.062V87.125ZM148.438 87.125H157.812V85.125H148.438V87.125ZM157.812 87.125H167.188V85.125H157.812V87.125ZM167.188 87.125H176.562V85.125H167.188V87.125ZM177.562 86.125V76.75H175.562V86.125H177.562ZM177.562 76.75V67.375H175.562V76.75H177.562ZM176.562 66.375H167.188V68.375H176.562V66.375ZM167.188 66.375H157.812V68.375H167.188V66.375ZM157.812 66.375H148.438V68.375H157.812V66.375ZM147.438 67.375V76.75H149.438V67.375H147.438ZM148.438 75.75H139.062V77.75H148.438V75.75ZM139.062 75.75H129.688V77.75H139.062V75.75ZM130.688 76.75V67.375H128.688V76.75H130.688ZM129.688 68.375H139.062V66.375H129.688V68.375ZM140.062 67.375V58H138.062V67.375H140.062ZM139.062 59H148.438V57H139.062V59ZM148.438 59H157.812V57H148.438V59ZM157.812 59H167.188V57H157.812V59ZM167.188 59H176.562V57H167.188V59ZM176.562 59H185.938V57H176.562V59ZM184.938 58V67.375H186.938V58H184.938ZM185.938 68.375H195.312V66.375H185.938V68.375ZM194.312 67.375V76.75H196.312V67.375H194.312ZM194.312 76.75V86.125H196.312V76.75H194.312ZM195.312 85.125H185.938V87.125H195.312V85.125ZM184.938 86.125V95.5H186.938V86.125H184.938ZM185.938 96.5H195.312V94.5H185.938V96.5ZM194.312 95.5V104.875H196.312V95.5H194.312ZM194.312 104.875V114.25H196.312V104.875H194.312ZM194.312 114.25V123.625H196.312V114.25H194.312ZM195.312 122.625H185.938V124.625H195.312V122.625ZM184.938 123.625V133H186.938V123.625H184.938ZM185.938 132H176.562V134H185.938V132Z" fill="#90FFDE"/>
<path d="M86 323H83.5V320.5V318V315.5V313V310.5V308V305.5V303H86H88.5H91H93.5H96H98.5V305.5H101V308V310.5V313H98.5V315.5H96H93.5H91H88.5V318V320.5V323H86ZM93.5 313H96V310.5V308V305.5H93.5H91H88.5V308V310.5V313H91H93.5ZM108.5 323H106V320.5V318V315.5V313V310.5V308H108.5V310.5H111V313V315.5V318V320.5V323H108.5ZM118.5 308H121V310.5H118.5H116H113.5H111V308H113.5H116H118.5ZM138.5 323H136H133.5H131H128.5V320.5H126V318V315.5V313V310.5H128.5V308H131H133.5H136H138.5H141V310.5H143.5V313V315.5V318V320.5H141V323H138.5ZM136 320.5H138.5V318V315.5V313V310.5H136H133.5H131V313V315.5V318V320.5H133.5H136ZM158.5 323H156V320.5H153.5V318H151V315.5H148.5V313V310.5V308H151H153.5V310.5V313V315.5H156V318H158.5V320.5H161V323H158.5ZM161 320.5V318H163.5V320.5H161ZM163.5 318V315.5H166V318H163.5ZM166 315.5V313V310.5V308H168.5V310.5V313V315.5H166ZM186 320.5H188.5V323H186H183.5H181H178.5H176H173.5V320.5H176H178.5V318V315.5V313H176V310.5H178.5H181H183.5V313V315.5V318V320.5H186ZM181 305.5H183.5V308H181H178.5V305.5H181ZM208.5 323H206H203.5H201H198.5H196V320.5H193.5V318V315.5V313V310.5H196V308H198.5H201H203.5H206V305.5V303V300.5H208.5H211V303V305.5V308V310.5V313V315.5V318V320.5V323H208.5ZM203.5 320.5H206V318V315.5V313V310.5H203.5H201H198.5V313V315.5V318V320.5H201H203.5ZM228.5 320.5H231V323H228.5H226H223.5H221H218.5V320.5H216V318V315.5V313V310.5H218.5V308H221H223.5H226H228.5H231V310.5H228.5H226H223.5H221V313H223.5H226H228.5H231V310.5H233.5V313V315.5H231H228.5H226H223.5H221V318V320.5H223.5H226H228.5ZM231 320.5V318H233.5V320.5H231ZM266 313V310.5H268.5V313H266ZM263.5 320.5H266V323H263.5H261H258.5H256H253.5V320.5H251V318V315.5V313V310.5H253.5V308H256H258.5H261H263.5H266V310.5H263.5H261H258.5H256V313V315.5V318V320.5H258.5H261H263.5ZM266 320.5V318H268.5V320.5H266ZM286 323H283.5H281H278.5H276V320.5H273.5V318V315.5V313V310.5H276V308H278.5H281H283.5H286H288.5V310.5H291V313V315.5V318V320.5H288.5V323H286ZM283.5 320.5H286V318V315.5V313V310.5H283.5H281H278.5V313V315.5V318V320.5H281H283.5ZM311 323H308.5H306H303.5H301H298.5V320.5H296V318V315.5V313V310.5V308H298.5H301V310.5V313V315.5V318V320.5H303.5H306H308.5V318V315.5V313V310.5V308H311H313.5V310.5V313V315.5V318V320.5V323H311ZM336 323H333.5V320.5V318V315.5V313V310.5H331H328.5H326H323.5V313V315.5V318V320.5V323H321H318.5V320.5V318V315.5V313V310.5V308H321H323.5H326H328.5H331H333.5H336V310.5H338.5V313V315.5V318V320.5V323H336ZM358.5 323H356H353.5H351H348.5V320.5H346V318V315.5V313V310.5H343.5V308H346V305.5V303H348.5H351V305.5V308H353.5H356V310.5H353.5H351V313V315.5V318V320.5H353.5H356H358.5V318H361H363.5V320.5H361V323H358.5ZM381 320.5H383.5V323H381H378.5H376H373.5H371V320.5H368.5V318V315.5V313V310.5H371V308H373.5H376H378.5H381H383.5V310.5H381H378.5H376H373.5V313H376H378.5H381H383.5V310.5H386V313V315.5H383.5H381H378.5H376H373.5V318V320.5H376H378.5H381ZM383.5 320.5V318H386V320.5H383.5ZM393.5 323H391V320.5V318V315.5V313V310.5V308H393.5V310.5H396V313V315.5V318V320.5V323H393.5ZM403.5 308H406V310.5H403.5H401H398.5H396V308H398.5H401H403.5ZM421 315.5H418.5H416H413.5H411V313V310.5H413.5H416H418.5H421H423.5V313V315.5H421ZM431 330.5H428.5V328V325.5V323V320.5V318V315.5V313V310.5V308H431H433.5H436H438.5H441H443.5V310.5H446V313V315.5V318V320.5H443.5V323H441H438.5H436H433.5V325.5V328V330.5H431ZM438.5 320.5H441V318V315.5V313V310.5H438.5H436H433.5V313V315.5V318V320.5H436H438.5ZM466 323H463.5H461H458.5H456H453.5V320.5H451V318H453.5V315.5H456H458.5H461H463.5V313V310.5H461H458.5H456V313H453.5H451V310.5H453.5V308H456H458.5H461H463.5H466V310.5H468.5V313V315.5V318V320.5V323H466ZM461 320.5H463.5V318H461H458.5H456H453.5V320.5H456H458.5H461ZM476 323H473.5V320.5V318V315.5V313V310.5V308H476V310.5H478.5V313V315.5V318V320.5V323H476ZM486 308H488.5V310.5H486H483.5H481H478.5V308H481H483.5H486ZM508.5 323H506H503.5H501H498.5V320.5H496V318V315.5V313V310.5H493.5V308H496V305.5V303H498.5H501V305.5V308H503.5H506V310.5H503.5H501V313V315.5V318V320.5H503.5H506H508.5V318H511H513.5V320.5H511V323H508.5ZM531 330.5H528.5H526H523.5H521V328H523.5H526H528.5H531V325.5V323H528.5H526H523.5H521V320.5H518.5V318V315.5V313V310.5V308H521H523.5V310.5V313V315.5V318V320.5H526H528.5H531V318V315.5V313V310.5V308H533.5H536V310.5V313V315.5V318V320.5V323V325.5V328H533.5V330.5H531ZM521 328H518.5V325.5H521V328ZM571 323H568.5H566H563.5H561H558.5H556V320.5H553.5V318V315.5V313V310.5V308H556H558.5V310.5V313V315.5V318V320.5H561V318V315.5V313V310.5V308H563.5H566V310.5V313V315.5V318V320.5H568.5V318V315.5V313V310.5V308H571H573.5V310.5V313V315.5V318V320.5V323H571ZM593.5 323H591H588.5H586H583.5H581V320.5H578.5V318H581V315.5H583.5H586H588.5H591V313V310.5H588.5H586H583.5V313H581H578.5V310.5H581V308H583.5H586H588.5H591H593.5V310.5H596V313V315.5V318V320.5V323H593.5ZM588.5 320.5H591V318H588.5H586H583.5H581V320.5H583.5H586H588.5ZM606 323H603.5V320.5V318V315.5V313V310.5V308V305.5V303H601V300.5H603.5H606H608.5V303V305.5V308V310.5V313V315.5V318V320.5V323H606ZM618.5 323H616V320.5V318V315.5V313V310.5V308V305.5V303H613.5V300.5H616H618.5H621V303V305.5V308V310.5V313V315.5V318V320.5V323H618.5ZM638.5 320.5H641V323H638.5H636H633.5H631H628.5V320.5H626V318V315.5V313V310.5H628.5V308H631H633.5H636H638.5H641V310.5H638.5H636H633.5H631V313H633.5H636H638.5H641V310.5H643.5V313V315.5H641H638.5H636H633.5H631V318V320.5H633.5H636H638.5ZM641 320.5V318H643.5V320.5H641ZM663.5 323H661H658.5H656H653.5V320.5H651V318V315.5V313V310.5H648.5V308H651V305.5V303H653.5H656V305.5V308H658.5H661V310.5H658.5H656V313V315.5V318V320.5H658.5H661H663.5V318H666H668.5V320.5H666V323H663.5ZM676 323H673.5V320.5V318H676H678.5V320.5V323H676Z" fill="#90FFDE"/>
<path d="M83.5 323H83V323.5H83.5V323ZM83.5 303V302.5H83V303H83.5ZM98.5 303H99V302.5H98.5V303ZM98.5 305.5H98V306H98.5V305.5ZM101 305.5H101.5V305H101V305.5ZM101 313V313.5H101.5V313H101ZM98.5 313V312.5H98V313H98.5ZM98.5 315.5V316H99V315.5H98.5ZM88.5 315.5V315H88V315.5H88.5ZM88.5 323V323.5H89V323H88.5ZM96 313V313.5H96.5V313H96ZM96 305.5H96.5V305H96V305.5ZM88.5 305.5V305H88V305.5H88.5ZM88.5 313H88V313.5H88.5V313ZM86 322.5H83.5V323.5H86V322.5ZM84 323V320.5H83V323H84ZM84 320.5V318H83V320.5H84ZM84 318V315.5H83V318H84ZM84 315.5V313H83V315.5H84ZM84 313V310.5H83V313H84ZM84 310.5V308H83V310.5H84ZM84 308V305.5H83V308H84ZM84 305.5V303H83V305.5H84ZM83.5 303.5H86V302.5H83.5V303.5ZM86 303.5H88.5V302.5H86V303.5ZM88.5 303.5H91V302.5H88.5V303.5ZM91 303.5H93.5V302.5H91V303.5ZM93.5 303.5H96V302.5H93.5V303.5ZM96 303.5H98.5V302.5H96V303.5ZM98 303V305.5H99V303H98ZM98.5 306H101V305H98.5V306ZM100.5 305.5V308H101.5V305.5H100.5ZM100.5 308V310.5H101.5V308H100.5ZM100.5 310.5V313H101.5V310.5H100.5ZM101 312.5H98.5V313.5H101V312.5ZM98 313V315.5H99V313H98ZM98.5 315H96V316H98.5V315ZM96 315H93.5V316H96V315ZM93.5 315H91V316H93.5V315ZM91 315H88.5V316H91V315ZM88 315.5V318H89V315.5H88ZM88 318V320.5H89V318H88ZM88 320.5V323H89V320.5H88ZM88.5 322.5H86V323.5H88.5V322.5ZM93.5 313.5H96V312.5H93.5V313.5ZM96.5 313V310.5H95.5V313H96.5ZM96.5 310.5V308H95.5V310.5H96.5ZM96.5 308V305.5H95.5V308H96.5ZM96 305H93.5V306H96V305ZM93.5 305H91V306H93.5V305ZM91 305H88.5V306H91V305ZM88 305.5V308H89V305.5H88ZM88 308V310.5H89V308H88ZM88 310.5V313H89V310.5H88ZM88.5 313.5H91V312.5H88.5V313.5ZM91 313.5H93.5V312.5H91V313.5ZM106 323H105.5V323.5H106V323ZM106 308V307.5H105.5V308H106ZM108.5 308H109V307.5H108.5V308ZM108.5 310.5H108V311H108.5V310.5ZM111 310.5H111.5V310H111V310.5ZM111 323V323.5H111.5V323H111ZM121 308H121.5V307.5H121V308ZM121 310.5V311H121.5V310.5H121ZM111 310.5H110.5V311H111V310.5ZM111 308V307.5H110.5V308H111ZM108.5 322.5H106V323.5H108.5V322.5ZM106.5 323V320.5H105.5V323H106.5ZM106.5 320.5V318H105.5V320.5H106.5ZM106.5 318V315.5H105.5V318H106.5ZM106.5 315.5V313H105.5V315.5H106.5ZM106.5 313V310.5H105.5V313H106.5ZM106.5 310.5V308H105.5V310.5H106.5ZM106 308.5H108.5V307.5H106V308.5ZM108 308V310.5H109V308H108ZM108.5 311H111V310H108.5V311ZM110.5 310.5V313H111.5V310.5H110.5ZM110.5 313V315.5H111.5V313H110.5ZM110.5 315.5V318H111.5V315.5H110.5ZM110.5 318V320.5H111.5V318H110.5ZM110.5 320.5V323H111.5V320.5H110.5ZM111 322.5H108.5V323.5H111V322.5ZM118.5 308.5H121V307.5H118.5V308.5ZM120.5 308V310.5H121.5V308H120.5ZM121 310H118.5V311H121V310ZM118.5 310H116V311H118.5V310ZM116 310H113.5V311H116V310ZM113.5 310H111V311H113.5V310ZM111.5 310.5V308H110.5V310.5H111.5ZM111 308.5H113.5V307.5H111V308.5ZM113.5 308.5H116V307.5H113.5V308.5ZM116 308.5H118.5V307.5H116V308.5ZM128.5 323H128V323.5H128.5V323ZM128.5 320.5H129V320H128.5V320.5ZM126 320.5H125.5V321H126V320.5ZM126 310.5V310H125.5V310.5H126ZM128.5 310.5V311H129V310.5H128.5ZM128.5 308V307.5H128V308H128.5ZM141 308H141.5V307.5H141V308ZM141 310.5H140.5V311H141V310.5ZM143.5 310.5H144V310H143.5V310.5ZM143.5 320.5V321H144V320.5H143.5ZM141 320.5V320H140.5V320.5H141ZM141 323V323.5H141.5V323H141ZM138.5 320.5V321H139V320.5H138.5ZM138.5 310.5H139V310H138.5V310.5ZM131 310.5V310H130.5V310.5H131ZM131 320.5H130.5V321H131V320.5ZM138.5 322.5H136V323.5H138.5V322.5ZM136 322.5H133.5V323.5H136V322.5ZM133.5 322.5H131V323.5H133.5V322.5ZM131 322.5H128.5V323.5H131V322.5ZM129 323V320.5H128V323H129ZM128.5 320H126V321H128.5V320ZM126.5 320.5V318H125.5V320.5H126.5ZM126.5 318V315.5H125.5V318H126.5ZM126.5 315.5V313H125.5V315.5H126.5ZM126.5 313V310.5H125.5V313H126.5ZM126 311H128.5V310H126V311ZM129 310.5V308H128V310.5H129ZM128.5 308.5H131V307.5H128.5V308.5ZM131 308.5H133.5V307.5H131V308.5ZM133.5 308.5H136V307.5H133.5V308.5ZM136 308.5H138.5V307.5H136V308.5ZM138.5 308.5H141V307.5H138.5V308.5ZM140.5 308V310.5H141.5V308H140.5ZM141 311H143.5V310H141V311ZM143 310.5V313H144V310.5H143ZM143 313V315.5H144V313H143ZM143 315.5V318H144V315.5H143ZM143 318V320.5H144V318H143ZM143.5 320H141V321H143.5V320ZM140.5 320.5V323H141.5V320.5H140.5ZM141 322.5H138.5V323.5H141V322.5ZM136 321H138.5V320H136V321ZM139 320.5V318H138V320.5H139ZM139 318V315.5H138V318H139ZM139 315.5V313H138V315.5H139ZM139 313V310.5H138V313H139ZM138.5 310H136V311H138.5V310ZM136 310H133.5V311H136V310ZM133.5 310H131V311H133.5V310ZM130.5 310.5V313H131.5V310.5H130.5ZM130.5 313V315.5H131.5V313H130.5ZM130.5 315.5V318H131.5V315.5H130.5ZM130.5 318V320.5H131.5V318H130.5ZM131 321H133.5V320H131V321ZM133.5 321H136V320H133.5V321ZM156 323H155.5V323.5H156V323ZM156 320.5H156.5V320H156V320.5ZM153.5 320.5H153V321H153.5V320.5ZM153.5 318H154V317.5H153.5V318ZM151 318H150.5V318.5H151V318ZM151 315.5H151.5V315H151V315.5ZM148.5 315.5H148V316H148.5V315.5ZM148.5 308V307.5H148V308H148.5ZM153.5 308H154V307.5H153.5V308ZM153.5 315.5H153V316H153.5V315.5ZM156 315.5H156.5V315H156V315.5ZM156 318H155.5V318.5H156V318ZM158.5 318H159V317.5H158.5V318ZM158.5 320.5H158V321H158.5V320.5ZM161 320.5H161.5V320H161V320.5ZM161 323V323.5H161.5V323H161ZM161 320.5H160.5V321H161V320.5ZM161 318V317.5H160.5V318H161ZM163.5 318H164V317.5H163.5V318ZM163.5 320.5V321H164V320.5H163.5ZM163.5 318H163V318.5H163.5V318ZM163.5 315.5V315H163V315.5H163.5ZM166 315.5H166.5V315H166V315.5ZM166 318V318.5H166.5V318H166ZM166 315.5H165.5V316H166V315.5ZM166 308V307.5H165.5V308H166ZM168.5 308H169V307.5H168.5V308ZM168.5 315.5V316H169V315.5H168.5ZM158.5 322.5H156V323.5H158.5V322.5ZM156.5 323V320.5H155.5V323H156.5ZM156 320H153.5V321H156V320ZM154 320.5V318H153V320.5H154ZM153.5 317.5H151V318.5H153.5V317.5ZM151.5 318V315.5H150.5V318H151.5ZM151 315H148.5V316H151V315ZM149 315.5V313H148V315.5H149ZM149 313V310.5H148V313H149ZM149 310.5V308H148V310.5H149ZM148.5 308.5H151V307.5H148.5V308.5ZM151 308.5H153.5V307.5H151V308.5ZM153 308V310.5H154V308H153ZM153 310.5V313H154V310.5H153ZM153 313V315.5H154V313H153ZM153.5 316H156V315H153.5V316ZM155.5 315.5V318H156.5V315.5H155.5ZM156 318.5H158.5V317.5H156V318.5ZM158 318V320.5H159V318H158ZM158.5 321H161V320H158.5V321ZM160.5 320.5V323H161.5V320.5H160.5ZM161 322.5H158.5V323.5H161V322.5ZM161.5 320.5V318H160.5V320.5H161.5ZM161 318.5H163.5V317.5H161V318.5ZM163 318V320.5H164V318H163ZM163.5 320H161V321H163.5V320ZM164 318V315.5H163V318H164ZM163.5 316H166V315H163.5V316ZM165.5 315.5V318H166.5V315.5H165.5ZM166 317.5H163.5V318.5H166V317.5ZM166.5 315.5V313H165.5V315.5H166.5ZM166.5 313V310.5H165.5V313H166.5ZM166.5 310.5V308H165.5V310.5H166.5ZM166 308.5H168.5V307.5H166V308.5ZM168 308V310.5H169V308H168ZM168 310.5V313H169V310.5H168ZM168 313V315.5H169V313H168ZM168.5 315H166V316H168.5V315ZM188.5 320.5H189V320H188.5V320.5ZM188.5 323V323.5H189V323H188.5ZM173.5 323H173V323.5H173.5V323ZM173.5 320.5V320H173V320.5H173.5ZM178.5 320.5V321H179V320.5H178.5ZM178.5 313H179V312.5H178.5V313ZM176 313H175.5V313.5H176V313ZM176 310.5V310H175.5V310.5H176ZM183.5 310.5H184V310H183.5V310.5ZM183.5 320.5H183V321H183.5V320.5ZM183.5 305.5H184V305H183.5V305.5ZM183.5 308V308.5H184V308H183.5ZM178.5 308H178V308.5H178.5V308ZM178.5 305.5V305H178V305.5H178.5ZM186 321H188.5V320H186V321ZM188 320.5V323H189V320.5H188ZM188.5 322.5H186V323.5H188.5V322.5ZM186 322.5H183.5V323.5H186V322.5ZM183.5 322.5H181V323.5H183.5V322.5ZM181 322.5H178.5V323.5H181V322.5ZM178.5 322.5H176V323.5H178.5V322.5ZM176 322.5H173.5V323.5H176V322.5ZM174 323V320.5H173V323H174ZM173.5 321H176V320H173.5V321ZM176 321H178.5V320H176V321ZM179 320.5V318H178V320.5H179ZM179 318V315.5H178V318H179ZM179 315.5V313H178V315.5H179ZM178.5 312.5H176V313.5H178.5V312.5ZM176.5 313V310.5H175.5V313H176.5ZM176 311H178.5V310H176V311ZM178.5 311H181V310H178.5V311ZM181 311H183.5V310H181V311ZM183 310.5V313H184V310.5H183ZM183 313V315.5H184V313H183ZM183 315.5V318H184V315.5H183ZM183 318V320.5H184V318H183ZM183.5 321H186V320H183.5V321ZM181 306H183.5V305H181V306ZM183 305.5V308H184V305.5H183ZM183.5 307.5H181V308.5H183.5V307.5ZM181 307.5H178.5V308.5H181V307.5ZM179 308V305.5H178V308H179ZM178.5 306H181V305H178.5V306ZM196 323H195.5V323.5H196V323ZM196 320.5H196.5V320H196V320.5ZM193.5 320.5H193V321H193.5V320.5ZM193.5 310.5V310H193V310.5H193.5ZM196 310.5V311H196.5V310.5H196ZM196 308V307.5H195.5V308H196ZM206 308V308.5H206.5V308H206ZM206 300.5V300H205.5V300.5H206ZM211 300.5H211.5V300H211V300.5ZM211 323V323.5H211.5V323H211ZM206 320.5V321H206.5V320.5H206ZM206 310.5H206.5V310H206V310.5ZM198.5 310.5V310H198V310.5H198.5ZM198.5 320.5H198V321H198.5V320.5ZM208.5 322.5H206V323.5H208.5V322.5ZM206 322.5H203.5V323.5H206V322.5ZM203.5 322.5H201V323.5H203.5V322.5ZM201 322.5H198.5V323.5H201V322.5ZM198.5 322.5H196V323.5H198.5V322.5ZM196.5 323V320.5H195.5V323H196.5ZM196 320H193.5V321H196V320ZM194 320.5V318H193V320.5H194ZM194 318V315.5H193V318H194ZM194 315.5V313H193V315.5H194ZM194 313V310.5H193V313H194ZM193.5 311H196V310H193.5V311ZM196.5 310.5V308H195.5V310.5H196.5ZM196 308.5H198.5V307.5H196V308.5ZM198.5 308.5H201V307.5H198.5V308.5ZM201 308.5H203.5V307.5H201V308.5ZM203.5 308.5H206V307.5H203.5V308.5ZM206.5 308V305.5H205.5V308H206.5ZM206.5 305.5V303H205.5V305.5H206.5ZM206.5 303V300.5H205.5V303H206.5ZM206 301H208.5V300H206V301ZM208.5 301H211V300H208.5V301ZM210.5 300.5V303H211.5V300.5H210.5ZM210.5 303V305.5H211.5V303H210.5ZM210.5 305.5V308H211.5V305.5H210.5ZM210.5 308V310.5H211.5V308H210.5ZM210.5 310.5V313H211.5V310.5H210.5ZM210.5 313V315.5H211.5V313H210.5ZM210.5 315.5V318H211.5V315.5H210.5ZM210.5 318V320.5H211.5V318H210.5ZM210.5 320.5V323H211.5V320.5H210.5ZM211 322.5H208.5V323.5H211V322.5ZM203.5 321H206V320H203.5V321ZM206.5 320.5V318H205.5V320.5H206.5ZM206.5 318V315.5H205.5V318H206.5ZM206.5 315.5V313H205.5V315.5H206.5ZM206.5 313V310.5H205.5V313H206.5ZM206 310H203.5V311H206V310ZM203.5 310H201V311H203.5V310ZM201 310H198.5V311H201V310ZM198 310.5V313H199V310.5H198ZM198 313V315.5H199V313H198ZM198 315.5V318H199V315.5H198ZM198 318V320.5H199V318H198ZM198.5 321H201V320H198.5V321ZM201 321H203.5V320H201V321ZM231 320.5H231.5V320H231V320.5ZM231 323V323.5H231.5V323H231ZM218.5 323H218V323.5H218.5V323ZM218.5 320.5H219V320H218.5V320.5ZM216 320.5H215.5V321H216V320.5ZM216 310.5V310H215.5V310.5H216ZM218.5 310.5V311H219V310.5H218.5ZM218.5 308V307.5H218V308H218.5ZM231 308H231.5V307.5H231V308ZM231 310.5V311H231.5V310.5H231ZM221 310.5V310H220.5V310.5H221ZM221 313H220.5V313.5H221V313ZM231 313V313.5H231.5V313H231ZM231 310.5V310H230.5V310.5H231ZM233.5 310.5H234V310H233.5V310.5ZM233.5 315.5V316H234V315.5H233.5ZM221 315.5V315H220.5V315.5H221ZM221 320.5H220.5V321H221V320.5ZM231 320.5H230.5V321H231V320.5ZM231 318V317.5H230.5V318H231ZM233.5 318H234V317.5H233.5V318ZM233.5 320.5V321H234V320.5H233.5ZM228.5 321H231V320H228.5V321ZM230.5 320.5V323H231.5V320.5H230.5ZM231 322.5H228.5V323.5H231V322.5ZM228.5 322.5H226V323.5H228.5V322.5ZM226 322.5H223.5V323.5H226V322.5ZM223.5 322.5H221V323.5H223.5V322.5ZM221 322.5H218.5V323.5H221V322.5ZM219 323V320.5H218V323H219ZM218.5 320H216V321H218.5V320ZM216.5 320.5V318H215.5V320.5H216.5ZM216.5 318V315.5H215.5V318H216.5ZM216.5 315.5V313H215.5V315.5H216.5ZM216.5 313V310.5H215.5V313H216.5ZM216 311H218.5V310H216V311ZM219 310.5V308H218V310.5H219ZM218.5 308.5H221V307.5H218.5V308.5ZM221 308.5H223.5V307.5H221V308.5ZM223.5 308.5H226V307.5H223.5V308.5ZM226 308.5H228.5V307.5H226V308.5ZM228.5 308.5H231V307.5H228.5V308.5ZM230.5 308V310.5H231.5V308H230.5ZM231 310H228.5V311H231V310ZM228.5 310H226V311H228.5V310ZM226 310H223.5V311H226V310ZM223.5 310H221V311H223.5V310ZM220.5 310.5V313H221.5V310.5H220.5ZM221 313.5H223.5V312.5H221V313.5ZM223.5 313.5H226V312.5H223.5V313.5ZM226 313.5H228.5V312.5H226V313.5ZM228.5 313.5H231V312.5H228.5V313.5ZM231.5 313V310.5H230.5V313H231.5ZM231 311H233.5V310H231V311ZM233 310.5V313H234V310.5H233ZM233 313V315.5H234V313H233ZM233.5 315H231V316H233.5V315ZM231 315H228.5V316H231V315ZM228.5 315H226V316H228.5V315ZM226 315H223.5V316H226V315ZM223.5 315H221V316H223.5V315ZM220.5 315.5V318H221.5V315.5H220.5ZM220.5 318V320.5H221.5V318H220.5ZM221 321H223.5V320H221V321ZM223.5 321H226V320H223.5V321ZM226 321H228.5V320H226V321ZM231.5 320.5V318H230.5V320.5H231.5ZM231 318.5H233.5V317.5H231V318.5ZM233 318V320.5H234V318H233ZM233.5 320H231V321H233.5V320ZM266 313H265.5V313.5H266V313ZM266 310.5V310H265.5V310.5H266ZM268.5 310.5H269V310H268.5V310.5ZM268.5 313V313.5H269V313H268.5ZM266 320.5H266.5V320H266V320.5ZM266 323V323.5H266.5V323H266ZM253.5 323H253V323.5H253.5V323ZM253.5 320.5H254V320H253.5V320.5ZM251 320.5H250.5V321H251V320.5ZM251 310.5V310H250.5V310.5H251ZM253.5 310.5V311H254V310.5H253.5ZM253.5 308V307.5H253V308H253.5ZM266 308H266.5V307.5H266V308ZM266 310.5V311H266.5V310.5H266ZM256 310.5V310H255.5V310.5H256ZM256 320.5H255.5V321H256V320.5ZM266 320.5H265.5V321H266V320.5ZM266 318V317.5H265.5V318H266ZM268.5 318H269V317.5H268.5V318ZM268.5 320.5V321H269V320.5H268.5ZM266.5 313V310.5H265.5V313H266.5ZM266 311H268.5V310H266V311ZM268 310.5V313H269V310.5H268ZM268.5 312.5H266V313.5H268.5V312.5ZM263.5 321H266V320H263.5V321ZM265.5 320.5V323H266.5V320.5H265.5ZM266 322.5H263.5V323.5H266V322.5ZM263.5 322.5H261V323.5H263.5V322.5ZM261 322.5H258.5V323.5H261V322.5ZM258.5 322.5H256V323.5H258.5V322.5ZM256 322.5H253.5V323.5H256V322.5ZM254 323V320.5H253V323H254ZM253.5 320H251V321H253.5V320ZM251.5 320.5V318H250.5V320.5H251.5ZM251.5 318V315.5H250.5V318H251.5ZM251.5 315.5V313H250.5V315.5H251.5ZM251.5 313V310.5H250.5V313H251.5ZM251 311H253.5V310H251V311ZM254 310.5V308H253V310.5H254ZM253.5 308.5H256V307.5H253.5V308.5ZM256 308.5H258.5V307.5H256V308.5ZM258.5 308.5H261V307.5H258.5V308.5ZM261 308.5H263.5V307.5H261V308.5ZM263.5 308.5H266V307.5H263.5V308.5ZM265.5 308V310.5H266.5V308H265.5ZM266 310H263.5V311H266V310ZM263.5 310H261V311H263.5V310ZM261 310H258.5V311H261V310ZM258.5 310H256V311H258.5V310ZM255.5 310.5V313H256.5V310.5H255.5ZM255.5 313V315.5H256.5V313H255.5ZM255.5 315.5V318H256.5V315.5H255.5ZM255.5 318V320.5H256.5V318H255.5ZM256 321H258.5V320H256V321ZM258.5 321H261V320H258.5V321ZM261 321H263.5V320H261V321ZM266.5 320.5V318H265.5V320.5H266.5ZM266 318.5H268.5V317.5H266V318.5ZM268 318V320.5H269V318H268ZM268.5 320H266V321H268.5V320ZM276 323H275.5V323.5H276V323ZM276 320.5H276.5V320H276V320.5ZM273.5 320.5H273V321H273.5V320.5ZM273.5 310.5V310H273V310.5H273.5ZM276 310.5V311H276.5V310.5H276ZM276 308V307.5H275.5V308H276ZM288.5 308H289V307.5H288.5V308ZM288.5 310.5H288V311H288.5V310.5ZM291 310.5H291.5V310H291V310.5ZM291 320.5V321H291.5V320.5H291ZM288.5 320.5V320H288V320.5H288.5ZM288.5 323V323.5H289V323H288.5ZM286 320.5V321H286.5V320.5H286ZM286 310.5H286.5V310H286V310.5ZM278.5 310.5V310H278V310.5H278.5ZM278.5 320.5H278V321H278.5V320.5ZM286 322.5H283.5V323.5H286V322.5ZM283.5 322.5H281V323.5H283.5V322.5ZM281 322.5H278.5V323.5H281V322.5ZM278.5 322.5H276V323.5H278.5V322.5ZM276.5 323V320.5H275.5V323H276.5ZM276 320H273.5V321H276V320ZM274 320.5V318H273V320.5H274ZM274 318V315.5H273V318H274ZM274 315.5V313H273V315.5H274ZM274 313V310.5H273V313H274ZM273.5 311H276V310H273.5V311ZM276.5 310.5V308H275.5V310.5H276.5ZM276 308.5H278.5V307.5H276V308.5ZM278.5 308.5H281V307.5H278.5V308.5ZM281 308.5H283.5V307.5H281V308.5ZM283.5 308.5H286V307.5H283.5V308.5ZM286 308.5H288.5V307.5H286V308.5ZM288 308V310.5H289V308H288ZM288.5 311H291V310H288.5V311ZM290.5 310.5V313H291.5V310.5H290.5ZM290.5 313V315.5H291.5V313H290.5ZM290.5 315.5V318H291.5V315.5H290.5ZM290.5 318V320.5H291.5V318H290.5ZM291 320H288.5V321H291V320ZM288 320.5V323H289V320.5H288ZM288.5 322.5H286V323.5H288.5V322.5ZM283.5 321H286V320H283.5V321ZM286.5 320.5V318H285.5V320.5H286.5ZM286.5 318V315.5H285.5V318H286.5ZM286.5 315.5V313H285.5V315.5H286.5ZM286.5 313V310.5H285.5V313H286.5ZM286 310H283.5V311H286V310ZM283.5 310H281V311H283.5V310ZM281 310H278.5V311H281V310ZM278 310.5V313H279V310.5H278ZM278 313V315.5H279V313H278ZM278 315.5V318H279V315.5H278ZM278 318V320.5H279V318H278ZM278.5 321H281V320H278.5V321ZM281 321H283.5V320H281V321ZM298.5 323H298V323.5H298.5V323ZM298.5 320.5H299V320H298.5V320.5ZM296 320.5H295.5V321H296V320.5ZM296 308V307.5H295.5V308H296ZM301 308H301.5V307.5H301V308ZM301 320.5H300.5V321H301V320.5ZM308.5 320.5V321H309V320.5H308.5ZM308.5 308V307.5H308V308H308.5ZM313.5 308H314V307.5H313.5V308ZM313.5 323V323.5H314V323H313.5ZM311 322.5H308.5V323.5H311V322.5ZM308.5 322.5H306V323.5H308.5V322.5ZM306 322.5H303.5V323.5H306V322.5ZM303.5 322.5H301V323.5H303.5V322.5ZM301 322.5H298.5V323.5H301V322.5ZM299 323V320.5H298V323H299ZM298.5 320H296V321H298.5V320ZM296.5 320.5V318H295.5V320.5H296.5ZM296.5 318V315.5H295.5V318H296.5ZM296.5 315.5V313H295.5V315.5H296.5ZM296.5 313V310.5H295.5V313H296.5ZM296.5 310.5V308H295.5V310.5H296.5ZM296 308.5H298.5V307.5H296V308.5ZM298.5 308.5H301V307.5H298.5V308.5ZM300.5 308V310.5H301.5V308H300.5ZM300.5 310.5V313H301.5V310.5H300.5ZM300.5 313V315.5H301.5V313H300.5ZM300.5 315.5V318H301.5V315.5H300.5ZM300.5 318V320.5H301.5V318H300.5ZM301 321H303.5V320H301V321ZM303.5 321H306V320H303.5V321ZM306 321H308.5V320H306V321ZM309 320.5V318H308V320.5H309ZM309 318V315.5H308V318H309ZM309 315.5V313H308V315.5H309ZM309 313V310.5H308V313H309ZM309 310.5V308H308V310.5H309ZM308.5 308.5H311V307.5H308.5V308.5ZM311 308.5H313.5V307.5H311V308.5ZM313 308V310.5H314V308H313ZM313 310.5V313H314V310.5H313ZM313 313V315.5H314V313H313ZM313 315.5V318H314V315.5H313ZM313 318V320.5H314V318H313ZM313 320.5V323H314V320.5H313ZM313.5 322.5H311V323.5H313.5V322.5ZM333.5 323H333V323.5H333.5V323ZM333.5 310.5H334V310H333.5V310.5ZM323.5 310.5V310H323V310.5H323.5ZM323.5 323V323.5H324V323H323.5ZM318.5 323H318V323.5H318.5V323ZM318.5 308V307.5H318V308H318.5ZM336 308H336.5V307.5H336V308ZM336 310.5H335.5V311H336V310.5ZM338.5 310.5H339V310H338.5V310.5ZM338.5 323V323.5H339V323H338.5ZM336 322.5H333.5V323.5H336V322.5ZM334 323V320.5H333V323H334ZM334 320.5V318H333V320.5H334ZM334 318V315.5H333V318H334ZM334 315.5V313H333V315.5H334ZM334 313V310.5H333V313H334ZM333.5 310H331V311H333.5V310ZM331 310H328.5V311H331V310ZM328.5 310H326V311H328.5V310ZM326 310H323.5V311H326V310ZM323 310.5V313H324V310.5H323ZM323 313V315.5H324V313H323ZM323 315.5V318H324V315.5H323ZM323 318V320.5H324V318H323ZM323 320.5V323H324V320.5H323ZM323.5 322.5H321V323.5H323.5V322.5ZM321 322.5H318.5V323.5H321V322.5ZM319 323V320.5H318V323H319ZM319 320.5V318H318V320.5H319ZM319 318V315.5H318V318H319ZM319 315.5V313H318V315.5H319ZM319 313V310.5H318V313H319ZM319 310.5V308H318V310.5H319ZM318.5 308.5H321V307.5H318.5V308.5ZM321 308.5H323.5V307.5H321V308.5ZM323.5 308.5H326V307.5H323.5V308.5ZM326 308.5H328.5V307.5H326V308.5ZM328.5 308.5H331V307.5H328.5V308.5ZM331 308.5H333.5V307.5H331V308.5ZM333.5 308.5H336V307.5H333.5V308.5ZM335.5 308V310.5H336.5V308H335.5ZM336 311H338.5V310H336V311ZM338 310.5V313H339V310.5H338ZM338 313V315.5H339V313H338ZM338 315.5V318H339V315.5H338ZM338 318V320.5H339V318H338ZM338 320.5V323H339V320.5H338ZM338.5 322.5H336V323.5H338.5V322.5ZM348.5 323H348V323.5H348.5V323ZM348.5 320.5H349V320H348.5V320.5ZM346 320.5H345.5V321H346V320.5ZM346 310.5H346.5V310H346V310.5ZM343.5 310.5H343V311H343.5V310.5ZM343.5 308V307.5H343V308H343.5ZM346 308V308.5H346.5V308H346ZM346 303V302.5H345.5V303H346ZM351 303H351.5V302.5H351V303ZM351 308H350.5V308.5H351V308ZM356 308H356.5V307.5H356V308ZM356 310.5V311H356.5V310.5H356ZM351 310.5V310H350.5V310.5H351ZM351 320.5H350.5V321H351V320.5ZM358.5 320.5V321H359V320.5H358.5ZM358.5 318V317.5H358V318H358.5ZM363.5 318H364V317.5H363.5V318ZM363.5 320.5V321H364V320.5H363.5ZM361 320.5V320H360.5V320.5H361ZM361 323V323.5H361.5V323H361ZM358.5 322.5H356V323.5H358.5V322.5ZM356 322.5H353.5V323.5H356V322.5ZM353.5 322.5H351V323.5H353.5V322.5ZM351 322.5H348.5V323.5H351V322.5ZM349 323V320.5H348V323H349ZM348.5 320H346V321H348.5V320ZM346.5 320.5V318H345.5V320.5H346.5ZM346.5 318V315.5H345.5V318H346.5ZM346.5 315.5V313H345.5V315.5H346.5ZM346.5 313V310.5H345.5V313H346.5ZM346 310H343.5V311H346V310ZM344 310.5V308H343V310.5H344ZM343.5 308.5H346V307.5H343.5V308.5ZM346.5 308V305.5H345.5V308H346.5ZM346.5 305.5V303H345.5V305.5H346.5ZM346 303.5H348.5V302.5H346V303.5ZM348.5 303.5H351V302.5H348.5V303.5ZM350.5 303V305.5H351.5V303H350.5ZM350.5 305.5V308H351.5V305.5H350.5ZM351 308.5H353.5V307.5H351V308.5ZM353.5 308.5H356V307.5H353.5V308.5ZM355.5 308V310.5H356.5V308H355.5ZM356 310H353.5V311H356V310ZM353.5 310H351V311H353.5V310ZM350.5 310.5V313H351.5V310.5H350.5ZM350.5 313V315.5H351.5V313H350.5ZM350.5 315.5V318H351.5V315.5H350.5ZM350.5 318V320.5H351.5V318H350.5ZM351 321H353.5V320H351V321ZM353.5 321H356V320H353.5V321ZM356 321H358.5V320H356V321ZM359 320.5V318H358V320.5H359ZM358.5 318.5H361V317.5H358.5V318.5ZM361 318.5H363.5V317.5H361V318.5ZM363 318V320.5H364V318H363ZM363.5 320H361V321H363.5V320ZM360.5 320.5V323H361.5V320.5H360.5ZM361 322.5H358.5V323.5H361V322.5ZM383.5 320.5H384V320H383.5V320.5ZM383.5 323V323.5H384V323H383.5ZM371 323H370.5V323.5H371V323ZM371 320.5H371.5V320H371V320.5ZM368.5 320.5H368V321H368.5V320.5ZM368.5 310.5V310H368V310.5H368.5ZM371 310.5V311H371.5V310.5H371ZM371 308V307.5H370.5V308H371ZM383.5 308H384V307.5H383.5V308ZM383.5 310.5V311H384V310.5H383.5ZM373.5 310.5V310H373V310.5H373.5ZM373.5 313H373V313.5H373.5V313ZM383.5 313V313.5H384V313H383.5ZM383.5 310.5V310H383V310.5H383.5ZM386 310.5H386.5V310H386V310.5ZM386 315.5V316H386.5V315.5H386ZM373.5 315.5V315H373V315.5H373.5ZM373.5 320.5H373V321H373.5V320.5ZM383.5 320.5H383V321H383.5V320.5ZM383.5 318V317.5H383V318H383.5ZM386 318H386.5V317.5H386V318ZM386 320.5V321H386.5V320.5H386ZM381 321H383.5V320H381V321ZM383 320.5V323H384V320.5H383ZM383.5 322.5H381V323.5H383.5V322.5ZM381 322.5H378.5V323.5H381V322.5ZM378.5 322.5H376V323.5H378.5V322.5ZM376 322.5H373.5V323.5H376V322.5ZM373.5 322.5H371V323.5H373.5V322.5ZM371.5 323V320.5H370.5V323H371.5ZM371 320H368.5V321H371V320ZM369 320.5V318H368V320.5H369ZM369 318V315.5H368V318H369ZM369 315.5V313H368V315.5H369ZM369 313V310.5H368V313H369ZM368.5 311H371V310H368.5V311ZM371.5 310.5V308H370.5V310.5H371.5ZM371 308.5H373.5V307.5H371V308.5ZM373.5 308.5H376V307.5H373.5V308.5ZM376 308.5H378.5V307.5H376V308.5ZM378.5 308.5H381V307.5H378.5V308.5ZM381 308.5H383.5V307.5H381V308.5ZM383 308V310.5H384V308H383ZM383.5 310H381V311H383.5V310ZM381 310H378.5V311H381V310ZM378.5 310H376V311H378.5V310ZM376 310H373.5V311H376V310ZM373 310.5V313H374V310.5H373ZM373.5 313.5H376V312.5H373.5V313.5ZM376 313.5H378.5V312.5H376V313.5ZM378.5 313.5H381V312.5H378.5V313.5ZM381 313.5H383.5V312.5H381V313.5ZM384 313V310.5H383V313H384ZM383.5 311H386V310H383.5V311ZM385.5 310.5V313H386.5V310.5H385.5ZM385.5 313V315.5H386.5V313H385.5ZM386 315H383.5V316H386V315ZM383.5 315H381V316H383.5V315ZM381 315H378.5V316H381V315ZM378.5 315H376V316H378.5V315ZM376 315H373.5V316H376V315ZM373 315.5V318H374V315.5H373ZM373 318V320.5H374V318H373ZM373.5 321H376V320H373.5V321ZM376 321H378.5V320H376V321ZM378.5 321H381V320H378.5V321ZM384 320.5V318H383V320.5H384ZM383.5 318.5H386V317.5H383.5V318.5ZM385.5 318V320.5H386.5V318H385.5ZM386 320H383.5V321H386V320ZM391 323H390.5V323.5H391V323ZM391 308V307.5H390.5V308H391ZM393.5 308H394V307.5H393.5V308ZM393.5 310.5H393V311H393.5V310.5ZM396 310.5H396.5V310H396V310.5ZM396 323V323.5H396.5V323H396ZM406 308H406.5V307.5H406V308ZM406 310.5V311H406.5V310.5H406ZM396 310.5H395.5V311H396V310.5ZM396 308V307.5H395.5V308H396ZM393.5 322.5H391V323.5H393.5V322.5ZM391.5 323V320.5H390.5V323H391.5ZM391.5 320.5V318H390.5V320.5H391.5ZM391.5 318V315.5H390.5V318H391.5ZM391.5 315.5V313H390.5V315.5H391.5ZM391.5 313V310.5H390.5V313H391.5ZM391.5 310.5V308H390.5V310.5H391.5ZM391 308.5H393.5V307.5H391V308.5ZM393 308V310.5H394V308H393ZM393.5 311H396V310H393.5V311ZM395.5 310.5V313H396.5V310.5H395.5ZM395.5 313V315.5H396.5V313H395.5ZM395.5 315.5V318H396.5V315.5H395.5ZM395.5 318V320.5H396.5V318H395.5ZM395.5 320.5V323H396.5V320.5H395.5ZM396 322.5H393.5V323.5H396V322.5ZM403.5 308.5H406V307.5H403.5V308.5ZM405.5 308V310.5H406.5V308H405.5ZM406 310H403.5V311H406V310ZM403.5 310H401V311H403.5V310ZM401 310H398.5V311H401V310ZM398.5 310H396V311H398.5V310ZM396.5 310.5V308H395.5V310.5H396.5ZM396 308.5H398.5V307.5H396V308.5ZM398.5 308.5H401V307.5H398.5V308.5ZM401 308.5H403.5V307.5H401V308.5ZM411 315.5H410.5V316H411V315.5ZM411 310.5V310H410.5V310.5H411ZM423.5 310.5H424V310H423.5V310.5ZM423.5 315.5V316H424V315.5H423.5ZM421 315H418.5V316H421V315ZM418.5 315H416V316H418.5V315ZM416 315H413.5V316H416V315ZM413.5 315H411V316H413.5V315ZM411.5 315.5V313H410.5V315.5H411.5ZM411.5 313V310.5H410.5V313H411.5ZM411 311H413.5V310H411V311ZM413.5 311H416V310H413.5V311ZM416 311H418.5V310H416V311ZM418.5 311H421V310H418.5V311ZM421 311H423.5V310H421V311ZM423 310.5V313H424V310.5H423ZM423 313V315.5H424V313H423ZM423.5 315H421V316H423.5V315ZM428.5 330.5H428V331H428.5V330.5ZM428.5 308V307.5H428V308H428.5ZM443.5 308H444V307.5H443.5V308ZM443.5 310.5H443V311H443.5V310.5ZM446 310.5H446.5V310H446V310.5ZM446 320.5V321H446.5V320.5H446ZM443.5 320.5V320H443V320.5H443.5ZM443.5 323V323.5H444V323H443.5ZM433.5 323V322.5H433V323H433.5ZM433.5 330.5V331H434V330.5H433.5ZM441 320.5V321H441.5V320.5H441ZM441 310.5H441.5V310H441V310.5ZM433.5 310.5V310H433V310.5H433.5ZM433.5 320.5H433V321H433.5V320.5ZM431 330H428.5V331H431V330ZM429 330.5V328H428V330.5H429ZM429 328V325.5H428V328H429ZM429 325.5V323H428V325.5H429ZM429 323V320.5H428V323H429ZM429 320.5V318H428V320.5H429ZM429 318V315.5H428V318H429ZM429 315.5V313H428V315.5H429ZM429 313V310.5H428V313H429ZM429 310.5V308H428V310.5H429ZM428.5 308.5H431V307.5H428.5V308.5ZM431 308.5H433.5V307.5H431V308.5ZM433.5 308.5H436V307.5H433.5V308.5ZM436 308.5H438.5V307.5H436V308.5ZM438.5 308.5H441V307.5H438.5V308.5ZM441 308.5H443.5V307.5H441V308.5ZM443 308V310.5H444V308H443ZM443.5 311H446V310H443.5V311ZM445.5 310.5V313H446.5V310.5H445.5ZM445.5 313V315.5H446.5V313H445.5ZM445.5 315.5V318H446.5V315.5H445.5ZM445.5 318V320.5H446.5V318H445.5ZM446 320H443.5V321H446V320ZM443 320.5V323H444V320.5H443ZM443.5 322.5H441V323.5H443.5V322.5ZM441 322.5H438.5V323.5H441V322.5ZM438.5 322.5H436V323.5H438.5V322.5ZM436 322.5H433.5V323.5H436V322.5ZM433 323V325.5H434V323H433ZM433 325.5V328H434V325.5H433ZM433 328V330.5H434V328H433ZM433.5 330H431V331H433.5V330ZM438.5 321H441V320H438.5V321ZM441.5 320.5V318H440.5V320.5H441.5ZM441.5 318V315.5H440.5V318H441.5ZM441.5 315.5V313H440.5V315.5H441.5ZM441.5 313V310.5H440.5V313H441.5ZM441 310H438.5V311H441V310ZM438.5 310H436V311H438.5V310ZM436 310H433.5V311H436V310ZM433 310.5V313H434V310.5H433ZM433 313V315.5H434V313H433ZM433 315.5V318H434V315.5H433ZM433 318V320.5H434V318H433ZM433.5 321H436V320H433.5V321ZM436 321H438.5V320H436V321ZM453.5 323H453V323.5H453.5V323ZM453.5 320.5H454V320H453.5V320.5ZM451 320.5H450.5V321H451V320.5ZM451 318V317.5H450.5V318H451ZM453.5 318V318.5H454V318H453.5ZM453.5 315.5V315H453V315.5H453.5ZM463.5 315.5V316H464V315.5H463.5ZM463.5 310.5H464V310H463.5V310.5ZM456 310.5V310H455.5V310.5H456ZM456 313V313.5H456.5V313H456ZM451 313H450.5V313.5H451V313ZM451 310.5V310H450.5V310.5H451ZM453.5 310.5V311H454V310.5H453.5ZM453.5 308V307.5H453V308H453.5ZM466 308H466.5V307.5H466V308ZM466 310.5H465.5V311H466V310.5ZM468.5 310.5H469V310H468.5V310.5ZM468.5 323V323.5H469V323H468.5ZM463.5 320.5V321H464V320.5H463.5ZM463.5 318H464V317.5H463.5V318ZM453.5 318V317.5H453V318H453.5ZM453.5 320.5H453V321H453.5V320.5ZM466 322.5H463.5V323.5H466V322.5ZM463.5 322.5H461V323.5H463.5V322.5ZM461 322.5H458.5V323.5H461V322.5ZM458.5 322.5H456V323.5H458.5V322.5ZM456 322.5H453.5V323.5H456V322.5ZM454 323V320.5H453V323H454ZM453.5 320H451V321H453.5V320ZM451.5 320.5V318H450.5V320.5H451.5ZM451 318.5H453.5V317.5H451V318.5ZM454 318V315.5H453V318H454ZM453.5 316H456V315H453.5V316ZM456 316H458.5V315H456V316ZM458.5 316H461V315H458.5V316ZM461 316H463.5V315H461V316ZM464 315.5V313H463V315.5H464ZM464 313V310.5H463V313H464ZM463.5 310H461V311H463.5V310ZM461 310H458.5V311H461V310ZM458.5 310H456V311H458.5V310ZM455.5 310.5V313H456.5V310.5H455.5ZM456 312.5H453.5V313.5H456V312.5ZM453.5 312.5H451V313.5H453.5V312.5ZM451.5 313V310.5H450.5V313H451.5ZM451 311H453.5V310H451V311ZM454 310.5V308H453V310.5H454ZM453.5 308.5H456V307.5H453.5V308.5ZM456 308.5H458.5V307.5H456V308.5ZM458.5 308.5H461V307.5H458.5V308.5ZM461 308.5H463.5V307.5H461V308.5ZM463.5 308.5H466V307.5H463.5V308.5ZM465.5 308V310.5H466.5V308H465.5ZM466 311H468.5V310H466V311ZM468 310.5V313H469V310.5H468ZM468 313V315.5H469V313H468ZM468 315.5V318H469V315.5H468ZM468 318V320.5H469V318H468ZM468 320.5V323H469V320.5H468ZM468.5 322.5H466V323.5H468.5V322.5ZM461 321H463.5V320H461V321ZM464 320.5V318H463V320.5H464ZM463.5 317.5H461V318.5H463.5V317.5ZM461 317.5H458.5V318.5H461V317.5ZM458.5 317.5H456V318.5H458.5V317.5ZM456 317.5H453.5V318.5H456V317.5ZM453 318V320.5H454V318H453ZM453.5 321H456V320H453.5V321ZM456 321H458.5V320H456V321ZM458.5 321H461V320H458.5V321ZM473.5 323H473V323.5H473.5V323ZM473.5 308V307.5H473V308H473.5ZM476 308H476.5V307.5H476V308ZM476 310.5H475.5V311H476V310.5ZM478.5 310.5H479V310H478.5V310.5ZM478.5 323V323.5H479V323H478.5ZM488.5 308H489V307.5H488.5V308ZM488.5 310.5V311H489V310.5H488.5ZM478.5 310.5H478V311H478.5V310.5ZM478.5 308V307.5H478V308H478.5ZM476 322.5H473.5V323.5H476V322.5ZM474 323V320.5H473V323H474ZM474 320.5V318H473V320.5H474ZM474 318V315.5H473V318H474ZM474 315.5V313H473V315.5H474ZM474 313V310.5H473V313H474ZM474 310.5V308H473V310.5H474ZM473.5 308.5H476V307.5H473.5V308.5ZM475.5 308V310.5H476.5V308H475.5ZM476 311H478.5V310H476V311ZM478 310.5V313H479V310.5H478ZM478 313V315.5H479V313H478ZM478 315.5V318H479V315.5H478ZM478 318V320.5H479V318H478ZM478 320.5V323H479V320.5H478ZM478.5 322.5H476V323.5H478.5V322.5ZM486 308.5H488.5V307.5H486V308.5ZM488 308V310.5H489V308H488ZM488.5 310H486V311H488.5V310ZM486 310H483.5V311H486V310ZM483.5 310H481V311H483.5V310ZM481 310H478.5V311H481V310ZM479 310.5V308H478V310.5H479ZM478.5 308.5H481V307.5H478.5V308.5ZM481 308.5H483.5V307.5H481V308.5ZM483.5 308.5H486V307.5H483.5V308.5ZM498.5 323H498V323.5H498.5V323ZM498.5 320.5H499V320H498.5V320.5ZM496 320.5H495.5V321H496V320.5ZM496 310.5H496.5V310H496V310.5ZM493.5 310.5H493V311H493.5V310.5ZM493.5 308V307.5H493V308H493.5ZM496 308V308.5H496.5V308H496ZM496 303V302.5H495.5V303H496ZM501 303H501.5V302.5H501V303ZM501 308H500.5V308.5H501V308ZM506 308H506.5V307.5H506V308ZM506 310.5V311H506.5V310.5H506ZM501 310.5V310H500.5V310.5H501ZM501 320.5H500.5V321H501V320.5ZM508.5 320.5V321H509V320.5H508.5ZM508.5 318V317.5H508V318H508.5ZM513.5 318H514V317.5H513.5V318ZM513.5 320.5V321H514V320.5H513.5ZM511 320.5V320H510.5V320.5H511ZM511 323V323.5H511.5V323H511ZM508.5 322.5H506V323.5H508.5V322.5ZM506 322.5H503.5V323.5H506V322.5ZM503.5 322.5H501V323.5H503.5V322.5ZM501 322.5H498.5V323.5H501V322.5ZM499 323V320.5H498V323H499ZM498.5 320H496V321H498.5V320ZM496.5 320.5V318H495.5V320.5H496.5ZM496.5 318V315.5H495.5V318H496.5ZM496.5 315.5V313H495.5V315.5H496.5ZM496.5 313V310.5H495.5V313H496.5ZM496 310H493.5V311H496V310ZM494 310.5V308H493V310.5H494ZM493.5 308.5H496V307.5H493.5V308.5ZM496.5 308V305.5H495.5V308H496.5ZM496.5 305.5V303H495.5V305.5H496.5ZM496 303.5H498.5V302.5H496V303.5ZM498.5 303.5H501V302.5H498.5V303.5ZM500.5 303V305.5H501.5V303H500.5ZM500.5 305.5V308H501.5V305.5H500.5ZM501 308.5H503.5V307.5H501V308.5ZM503.5 308.5H506V307.5H503.5V308.5ZM505.5 308V310.5H506.5V308H505.5ZM506 310H503.5V311H506V310ZM503.5 310H501V311H503.5V310ZM500.5 310.5V313H501.5V310.5H500.5ZM500.5 313V315.5H501.5V313H500.5ZM500.5 315.5V318H501.5V315.5H500.5ZM500.5 318V320.5H501.5V318H500.5ZM501 321H503.5V320H501V321ZM503.5 321H506V320H503.5V321ZM506 321H508.5V320H506V321ZM509 320.5V318H508V320.5H509ZM508.5 318.5H511V317.5H508.5V318.5ZM511 318.5H513.5V317.5H511V318.5ZM513 318V320.5H514V318H513ZM513.5 320H511V321H513.5V320ZM510.5 320.5V323H511.5V320.5H510.5ZM511 322.5H508.5V323.5H511V322.5ZM521 330.5H520.5V331H521V330.5ZM521 328V327.5H520.5V328H521ZM531 328V328.5H531.5V328H531ZM531 323H531.5V322.5H531V323ZM521 323H520.5V323.5H521V323ZM521 320.5H521.5V320H521V320.5ZM518.5 320.5H518V321H518.5V320.5ZM518.5 308V307.5H518V308H518.5ZM523.5 308H524V307.5H523.5V308ZM523.5 320.5H523V321H523.5V320.5ZM531 320.5V321H531.5V320.5H531ZM531 308V307.5H530.5V308H531ZM536 308H536.5V307.5H536V308ZM536 328V328.5H536.5V328H536ZM533.5 328V327.5H533V328H533.5ZM533.5 330.5V331H534V330.5H533.5ZM521 328V328.5H521.5V328H521ZM518.5 328H518V328.5H518.5V328ZM518.5 325.5V325H518V325.5H518.5ZM521 325.5H521.5V325H521V325.5ZM531 330H528.5V331H531V330ZM528.5 330H526V331H528.5V330ZM526 330H523.5V331H526V330ZM523.5 330H521V331H523.5V330ZM521.5 330.5V328H520.5V330.5H521.5ZM521 328.5H523.5V327.5H521V328.5ZM523.5 328.5H526V327.5H523.5V328.5ZM526 328.5H528.5V327.5H526V328.5ZM528.5 328.5H531V327.5H528.5V328.5ZM531.5 328V325.5H530.5V328H531.5ZM531.5 325.5V323H530.5V325.5H531.5ZM531 322.5H528.5V323.5H531V322.5ZM528.5 322.5H526V323.5H528.5V322.5ZM526 322.5H523.5V323.5H526V322.5ZM523.5 322.5H521V323.5H523.5V322.5ZM521.5 323V320.5H520.5V323H521.5ZM521 320H518.5V321H521V320ZM519 320.5V318H518V320.5H519ZM519 318V315.5H518V318H519ZM519 315.5V313H518V315.5H519ZM519 313V310.5H518V313H519ZM519 310.5V308H518V310.5H519ZM518.5 308.5H521V307.5H518.5V308.5ZM521 308.5H523.5V307.5H521V308.5ZM523 308V310.5H524V308H523ZM523 310.5V313H524V310.5H523ZM523 313V315.5H524V313H523ZM523 315.5V318H524V315.5H523ZM523 318V320.5H524V318H523ZM523.5 321H526V320H523.5V321ZM526 321H528.5V320H526V321ZM528.5 321H531V320H528.5V321ZM531.5 320.5V318H530.5V320.5H531.5ZM531.5 318V315.5H530.5V318H531.5ZM531.5 315.5V313H530.5V315.5H531.5ZM531.5 313V310.5H530.5V313H531.5ZM531.5 310.5V308H530.5V310.5H531.5ZM531 308.5H533.5V307.5H531V308.5ZM533.5 308.5H536V307.5H533.5V308.5ZM535.5 308V310.5H536.5V308H535.5ZM535.5 310.5V313H536.5V310.5H535.5ZM535.5 313V315.5H536.5V313H535.5ZM535.5 315.5V318H536.5V315.5H535.5ZM535.5 318V320.5H536.5V318H535.5ZM535.5 320.5V323H536.5V320.5H535.5ZM535.5 323V325.5H536.5V323H535.5ZM535.5 325.5V328H536.5V325.5H535.5ZM536 327.5H533.5V328.5H536V327.5ZM533 328V330.5H534V328H533ZM533.5 330H531V331H533.5V330ZM521 327.5H518.5V328.5H521V327.5ZM519 328V325.5H518V328H519ZM518.5 326H521V325H518.5V326ZM520.5 325.5V328H521.5V325.5H520.5ZM556 323H555.5V323.5H556V323ZM556 320.5H556.5V320H556V320.5ZM553.5 320.5H553V321H553.5V320.5ZM553.5 308V307.5H553V308H553.5ZM558.5 308H559V307.5H558.5V308ZM558.5 320.5H558V321H558.5V320.5ZM561 320.5V321H561.5V320.5H561ZM561 308V307.5H560.5V308H561ZM566 308H566.5V307.5H566V308ZM566 320.5H565.5V321H566V320.5ZM568.5 320.5V321H569V320.5H568.5ZM568.5 308V307.5H568V308H568.5ZM573.5 308H574V307.5H573.5V308ZM573.5 323V323.5H574V323H573.5ZM571 322.5H568.5V323.5H571V322.5ZM568.5 322.5H566V323.5H568.5V322.5ZM566 322.5H563.5V323.5H566V322.5ZM563.5 322.5H561V323.5H563.5V322.5ZM561 322.5H558.5V323.5H561V322.5ZM558.5 322.5H556V323.5H558.5V322.5ZM556.5 323V320.5H555.5V323H556.5ZM556 320H553.5V321H556V320ZM554 320.5V318H553V320.5H554ZM554 318V315.5H553V318H554ZM554 315.5V313H553V315.5H554ZM554 313V310.5H553V313H554ZM554 310.5V308H553V310.5H554ZM553.5 308.5H556V307.5H553.5V308.5ZM556 308.5H558.5V307.5H556V308.5ZM558 308V310.5H559V308H558ZM558 310.5V313H559V310.5H558ZM558 313V315.5H559V313H558ZM558 315.5V318H559V315.5H558ZM558 318V320.5H559V318H558ZM558.5 321H561V320H558.5V321ZM561.5 320.5V318H560.5V320.5H561.5ZM561.5 318V315.5H560.5V318H561.5ZM561.5 315.5V313H560.5V315.5H561.5ZM561.5 313V310.5H560.5V313H561.5ZM561.5 310.5V308H560.5V310.5H561.5ZM561 308.5H563.5V307.5H561V308.5ZM563.5 308.5H566V307.5H563.5V308.5ZM565.5 308V310.5H566.5V308H565.5ZM565.5 310.5V313H566.5V310.5H565.5ZM565.5 313V315.5H566.5V313H565.5ZM565.5 315.5V318H566.5V315.5H565.5ZM565.5 318V320.5H566.5V318H565.5ZM566 321H568.5V320H566V321ZM569 320.5V318H568V320.5H569ZM569 318V315.5H568V318H569ZM569 315.5V313H568V315.5H569ZM569 313V310.5H568V313H569ZM569 310.5V308H568V310.5H569ZM568.5 308.5H571V307.5H568.5V308.5ZM571 308.5H573.5V307.5H571V308.5ZM573 308V310.5H574V308H573ZM573 310.5V313H574V310.5H573ZM573 313V315.5H574V313H573ZM573 315.5V318H574V315.5H573ZM573 318V320.5H574V318H573ZM573 320.5V323H574V320.5H573ZM573.5 322.5H571V323.5H573.5V322.5ZM581 323H580.5V323.5H581V323ZM581 320.5H581.5V320H581V320.5ZM578.5 320.5H578V321H578.5V320.5ZM578.5 318V317.5H578V318H578.5ZM581 318V318.5H581.5V318H581ZM581 315.5V315H580.5V315.5H581ZM591 315.5V316H591.5V315.5H591ZM591 310.5H591.5V310H591V310.5ZM583.5 310.5V310H583V310.5H583.5ZM583.5 313V313.5H584V313H583.5ZM578.5 313H578V313.5H578.5V313ZM578.5 310.5V310H578V310.5H578.5ZM581 310.5V311H581.5V310.5H581ZM581 308V307.5H580.5V308H581ZM593.5 308H594V307.5H593.5V308ZM593.5 310.5H593V311H593.5V310.5ZM596 310.5H596.5V310H596V310.5ZM596 323V323.5H596.5V323H596ZM591 320.5V321H591.5V320.5H591ZM591 318H591.5V317.5H591V318ZM581 318V317.5H580.5V318H581ZM581 320.5H580.5V321H581V320.5ZM593.5 322.5H591V323.5H593.5V322.5ZM591 322.5H588.5V323.5H591V322.5ZM588.5 322.5H586V323.5H588.5V322.5ZM586 322.5H583.5V323.5H586V322.5ZM583.5 322.5H581V323.5H583.5V322.5ZM581.5 323V320.5H580.5V323H581.5ZM581 320H578.5V321H581V320ZM579 320.5V318H578V320.5H579ZM578.5 318.5H581V317.5H578.5V318.5ZM581.5 318V315.5H580.5V318H581.5ZM581 316H583.5V315H581V316ZM583.5 316H586V315H583.5V316ZM586 316H588.5V315H586V316ZM588.5 316H591V315H588.5V316ZM591.5 315.5V313H590.5V315.5H591.5ZM591.5 313V310.5H590.5V313H591.5ZM591 310H588.5V311H591V310ZM588.5 310H586V311H588.5V310ZM586 310H583.5V311H586V310ZM583 310.5V313H584V310.5H583ZM583.5 312.5H581V313.5H583.5V312.5ZM581 312.5H578.5V313.5H581V312.5ZM579 313V310.5H578V313H579ZM578.5 311H581V310H578.5V311ZM581.5 310.5V308H580.5V310.5H581.5ZM581 308.5H583.5V307.5H581V308.5ZM583.5 308.5H586V307.5H583.5V308.5ZM586 308.5H588.5V307.5H586V308.5ZM588.5 308.5H591V307.5H588.5V308.5ZM591 308.5H593.5V307.5H591V308.5ZM593 308V310.5H594V308H593ZM593.5 311H596V310H593.5V311ZM595.5 310.5V313H596.5V310.5H595.5ZM595.5 313V315.5H596.5V313H595.5ZM595.5 315.5V318H596.5V315.5H595.5ZM595.5 318V320.5H596.5V318H595.5ZM595.5 320.5V323H596.5V320.5H595.5ZM596 322.5H593.5V323.5H596V322.5ZM588.5 321H591V320H588.5V321ZM591.5 320.5V318H590.5V320.5H591.5ZM591 317.5H588.5V318.5H591V317.5ZM588.5 317.5H586V318.5H588.5V317.5ZM586 317.5H583.5V318.5H586V317.5ZM583.5 317.5H581V318.5H583.5V317.5ZM580.5 318V320.5H581.5V318H580.5ZM581 321H583.5V320H581V321ZM583.5 321H586V320H583.5V321ZM586 321H588.5V320H586V321ZM603.5 323H603V323.5H603.5V323ZM603.5 303H604V302.5H603.5V303ZM601 303H600.5V303.5H601V303ZM601 300.5V300H600.5V300.5H601ZM608.5 300.5H609V300H608.5V300.5ZM608.5 323V323.5H609V323H608.5ZM606 322.5H603.5V323.5H606V322.5ZM604 323V320.5H603V323H604ZM604 320.5V318H603V320.5H604ZM604 318V315.5H603V318H604ZM604 315.5V313H603V315.5H604ZM604 313V310.5H603V313H604ZM604 310.5V308H603V310.5H604ZM604 308V305.5H603V308H604ZM604 305.5V303H603V305.5H604ZM603.5 302.5H601V303.5H603.5V302.5ZM601.5 303V300.5H600.5V303H601.5ZM601 301H603.5V300H601V301ZM603.5 301H606V300H603.5V301ZM606 301H608.5V300H606V301ZM608 300.5V303H609V300.5H608ZM608 303V305.5H609V303H608ZM608 305.5V308H609V305.5H608ZM608 308V310.5H609V308H608ZM608 310.5V313H609V310.5H608ZM608 313V315.5H609V313H608ZM608 315.5V318H609V315.5H608ZM608 318V320.5H609V318H608ZM608 320.5V323H609V320.5H608ZM608.5 322.5H606V323.5H608.5V322.5ZM616 323H615.5V323.5H616V323ZM616 303H616.5V302.5H616V303ZM613.5 303H613V303.5H613.5V303ZM613.5 300.5V300H613V300.5H613.5ZM621 300.5H621.5V300H621V300.5ZM621 323V323.5H621.5V323H621ZM618.5 322.5H616V323.5H618.5V322.5ZM616.5 323V320.5H615.5V323H616.5ZM616.5 320.5V318H615.5V320.5H616.5ZM616.5 318V315.5H615.5V318H616.5ZM616.5 315.5V313H615.5V315.5H616.5ZM616.5 313V310.5H615.5V313H616.5ZM616.5 310.5V308H615.5V310.5H616.5ZM616.5 308V305.5H615.5V308H616.5ZM616.5 305.5V303H615.5V305.5H616.5ZM616 302.5H613.5V303.5H616V302.5ZM614 303V300.5H613V303H614ZM613.5 301H616V300H613.5V301ZM616 301H618.5V300H616V301ZM618.5 301H621V300H618.5V301ZM620.5 300.5V303H621.5V300.5H620.5ZM620.5 303V305.5H621.5V303H620.5ZM620.5 305.5V308H621.5V305.5H620.5ZM620.5 308V310.5H621.5V308H620.5ZM620.5 310.5V313H621.5V310.5H620.5ZM620.5 313V315.5H621.5V313H620.5ZM620.5 315.5V318H621.5V315.5H620.5ZM620.5 318V320.5H621.5V318H620.5ZM620.5 320.5V323H621.5V320.5H620.5ZM621 322.5H618.5V323.5H621V322.5ZM641 320.5H641.5V320H641V320.5ZM641 323V323.5H641.5V323H641ZM628.5 323H628V323.5H628.5V323ZM628.5 320.5H629V320H628.5V320.5ZM626 320.5H625.5V321H626V320.5ZM626 310.5V310H625.5V310.5H626ZM628.5 310.5V311H629V310.5H628.5ZM628.5 308V307.5H628V308H628.5ZM641 308H641.5V307.5H641V308ZM641 310.5V311H641.5V310.5H641ZM631 310.5V310H630.5V310.5H631ZM631 313H630.5V313.5H631V313ZM641 313V313.5H641.5V313H641ZM641 310.5V310H640.5V310.5H641ZM643.5 310.5H644V310H643.5V310.5ZM643.5 315.5V316H644V315.5H643.5ZM631 315.5V315H630.5V315.5H631ZM631 320.5H630.5V321H631V320.5ZM641 320.5H640.5V321H641V320.5ZM641 318V317.5H640.5V318H641ZM643.5 318H644V317.5H643.5V318ZM643.5 320.5V321H644V320.5H643.5ZM638.5 321H641V320H638.5V321ZM640.5 320.5V323H641.5V320.5H640.5ZM641 322.5H638.5V323.5H641V322.5ZM638.5 322.5H636V323.5H638.5V322.5ZM636 322.5H633.5V323.5H636V322.5ZM633.5 322.5H631V323.5H633.5V322.5ZM631 322.5H628.5V323.5H631V322.5ZM629 323V320.5H628V323H629ZM628.5 320H626V321H628.5V320ZM626.5 320.5V318H625.5V320.5H626.5ZM626.5 318V315.5H625.5V318H626.5ZM626.5 315.5V313H625.5V315.5H626.5ZM626.5 313V310.5H625.5V313H626.5ZM626 311H628.5V310H626V311ZM629 310.5V308H628V310.5H629ZM628.5 308.5H631V307.5H628.5V308.5ZM631 308.5H633.5V307.5H631V308.5ZM633.5 308.5H636V307.5H633.5V308.5ZM636 308.5H638.5V307.5H636V308.5ZM638.5 308.5H641V307.5H638.5V308.5ZM640.5 308V310.5H641.5V308H640.5ZM641 310H638.5V311H641V310ZM638.5 310H636V311H638.5V310ZM636 310H633.5V311H636V310ZM633.5 310H631V311H633.5V310ZM630.5 310.5V313H631.5V310.5H630.5ZM631 313.5H633.5V312.5H631V313.5ZM633.5 313.5H636V312.5H633.5V313.5ZM636 313.5H638.5V312.5H636V313.5ZM638.5 313.5H641V312.5H638.5V313.5ZM641.5 313V310.5H640.5V313H641.5ZM641 311H643.5V310H641V311ZM643 310.5V313H644V310.5H643ZM643 313V315.5H644V313H643ZM643.5 315H641V316H643.5V315ZM641 315H638.5V316H641V315ZM638.5 315H636V316H638.5V315ZM636 315H633.5V316H636V315ZM633.5 315H631V316H633.5V315ZM630.5 315.5V318H631.5V315.5H630.5ZM630.5 318V320.5H631.5V318H630.5ZM631 321H633.5V320H631V321ZM633.5 321H636V320H633.5V321ZM636 321H638.5V320H636V321ZM641.5 320.5V318H640.5V320.5H641.5ZM641 318.5H643.5V317.5H641V318.5ZM643 318V320.5H644V318H643ZM643.5 320H641V321H643.5V320ZM653.5 323H653V323.5H653.5V323ZM653.5 320.5H654V320H653.5V320.5ZM651 320.5H650.5V321H651V320.5ZM651 310.5H651.5V310H651V310.5ZM648.5 310.5H648V311H648.5V310.5ZM648.5 308V307.5H648V308H648.5ZM651 308V308.5H651.5V308H651ZM651 303V302.5H650.5V303H651ZM656 303H656.5V302.5H656V303ZM656 308H655.5V308.5H656V308ZM661 308H661.5V307.5H661V308ZM661 310.5V311H661.5V310.5H661ZM656 310.5V310H655.5V310.5H656ZM656 320.5H655.5V321H656V320.5ZM663.5 320.5V321H664V320.5H663.5ZM663.5 318V317.5H663V318H663.5ZM668.5 318H669V317.5H668.5V318ZM668.5 320.5V321H669V320.5H668.5ZM666 320.5V320H665.5V320.5H666ZM666 323V323.5H666.5V323H666ZM663.5 322.5H661V323.5H663.5V322.5ZM661 322.5H658.5V323.5H661V322.5ZM658.5 322.5H656V323.5H658.5V322.5ZM656 322.5H653.5V323.5H656V322.5ZM654 323V320.5H653V323H654ZM653.5 320H651V321H653.5V320ZM651.5 320.5V318H650.5V320.5H651.5ZM651.5 318V315.5H650.5V318H651.5ZM651.5 315.5V313H650.5V315.5H651.5ZM651.5 313V310.5H650.5V313H651.5ZM651 310H648.5V311H651V310ZM649 310.5V308H648V310.5H649ZM648.5 308.5H651V307.5H648.5V308.5ZM651.5 308V305.5H650.5V308H651.5ZM651.5 305.5V303H650.5V305.5H651.5ZM651 303.5H653.5V302.5H651V303.5ZM653.5 303.5H656V302.5H653.5V303.5ZM655.5 303V305.5H656.5V303H655.5ZM655.5 305.5V308H656.5V305.5H655.5ZM656 308.5H658.5V307.5H656V308.5ZM658.5 308.5H661V307.5H658.5V308.5ZM660.5 308V310.5H661.5V308H660.5ZM661 310H658.5V311H661V310ZM658.5 310H656V311H658.5V310ZM655.5 310.5V313H656.5V310.5H655.5ZM655.5 313V315.5H656.5V313H655.5ZM655.5 315.5V318H656.5V315.5H655.5ZM655.5 318V320.5H656.5V318H655.5ZM656 321H658.5V320H656V321ZM658.5 321H661V320H658.5V321ZM661 321H663.5V320H661V321ZM664 320.5V318H663V320.5H664ZM663.5 318.5H666V317.5H663.5V318.5ZM666 318.5H668.5V317.5H666V318.5ZM668 318V320.5H669V318H668ZM668.5 320H666V321H668.5V320ZM665.5 320.5V323H666.5V320.5H665.5ZM666 322.5H663.5V323.5H666V322.5ZM673.5 323H673V323.5H673.5V323ZM673.5 318V317.5H673V318H673.5ZM678.5 318H679V317.5H678.5V318ZM678.5 323V323.5H679V323H678.5ZM676 322.5H673.5V323.5H676V322.5ZM674 323V320.5H673V323H674ZM674 320.5V318H673V320.5H674ZM673.5 318.5H676V317.5H673.5V318.5ZM676 318.5H678.5V317.5H676V318.5ZM678 318V320.5H679V318H678ZM678 320.5V323H679V320.5H678ZM678.5 322.5H676V323.5H678.5V322.5Z" fill="white"/>
<g clip-path="url(#clip0_365_6242)">
<g filter="url(#filter0_d_365_6242)">
<rect x="204.148" y="151.326" width="575.25" height="53.2972" rx="10.5901" fill="url(#paint1_linear_365_6242)"/>
</g>
<g filter="url(#filter1_i_365_6242)">
<path d="M220.56 150.59C220.56 144.741 225.301 140 231.15 140H753.99C759.839 140 764.58 144.741 764.58 150.59V207.357C764.58 213.206 759.839 217.947 753.99 217.947H231.15C225.301 217.947 220.56 213.206 220.56 207.357V150.59Z" fill="url(#paint2_linear_365_6242)"/>
</g>
<g filter="url(#filter2_f_365_6242)">
<rect x="209.145" y="142.665" width="562.758" height="65.2891" rx="4.23602" fill="black" fill-opacity="0.1"/>
</g>
<g filter="url(#filter3_d_365_6242)">
<rect x="212.268" y="145.33" width="559.635" height="65.2891" rx="10.5901" fill="url(#paint3_linear_365_6242)"/>
</g>
<g filter="url(#filter4_d_365_6242)">
<rect x="210.384" y="151.019" width="559.661" height="51.8528" rx="10.5901" fill="black" fill-opacity="0.5" shape-rendering="crispEdges"/>
</g>
<g filter="url(#filter5_i_365_6242)">
<path d="M226.351 150.59C226.351 144.741 231.092 140 236.941 140H745.038C750.887 140 755.628 144.741 755.628 150.59V205.245C755.628 211.093 750.887 215.835 745.038 215.835H236.941C231.092 215.835 226.351 211.093 226.351 205.245V150.59Z" fill="black" fill-opacity="0.5"/>
</g>
<g filter="url(#filter6_f_365_6242)">
<rect x="215.245" y="142.593" width="547.507" height="63.5197" rx="4.23602" fill="black" fill-opacity="0.1"/>
</g>
<g filter="url(#filter7_d_365_6242)">
<rect x="218.284" y="145.186" width="544.469" height="63.5197" rx="10.5901" fill="black" fill-opacity="0.5" shape-rendering="crispEdges"/>
</g>
<path d="M338.026 190.826H334.849H331.672H328.495H325.318V187.649H322.141V184.472V181.295V178.118V174.941V171.764V168.587H325.318V165.41H328.495H331.672H334.849H338.026H341.203V168.587H344.38V171.764V174.941V178.118V181.295V184.472V187.649H341.203V190.826H338.026ZM334.849 187.649H338.026V184.472V181.295V178.118V174.941V171.764H334.849V168.587H331.672H328.495V171.764V174.941V178.118V181.295V184.472H331.672V187.649H334.849ZM366.62 190.826V187.649H369.797V190.826H366.62ZM350.734 190.826V187.649V184.472H353.911V181.295H357.089V178.118H360.266V174.941H363.443V171.764H366.62H369.797V174.941H366.62V178.118H363.443V181.295V184.472H366.62V187.649H363.443V184.472H360.266H357.089V187.649H353.911V190.826H350.734ZM357.089 178.118H353.911V174.941H357.089V178.118ZM353.911 174.941H350.734V171.764H353.911V174.941ZM398.39 190.826V187.649H401.567V190.826H398.39ZM376.151 190.826V187.649V184.472H379.328V181.295H382.505V178.118H385.682V174.941H388.859V171.764H392.036V168.587H395.213V165.41H398.39H401.567V168.587H398.39V171.764H395.213V174.941H392.036V178.118V181.295H395.213V184.472H398.39V187.649H395.213V184.472H392.036V181.295H388.859H385.682V184.472H382.505V187.649H379.328V190.826H376.151ZM385.682 174.941H382.505V171.764H385.682V174.941ZM382.505 171.764H379.328V168.587H382.505V171.764ZM379.328 168.587H376.151V165.41H379.328V168.587ZM426.983 174.941V171.764V168.587H430.16V171.764V174.941H426.983ZM423.806 187.649H426.983V190.826H423.806H420.629H417.452H414.275H411.098V187.649H407.921V184.472V181.295V178.118V174.941V171.764V168.587H411.098V165.41H414.275H417.452H420.629H423.806H426.983V168.587H423.806H420.629H417.452H414.275V171.764V174.941V178.118V181.295V184.472V187.649H417.452H420.629H423.806ZM426.983 187.649V184.472V181.295H430.16V184.472V187.649H426.983ZM452.399 187.649H455.576V184.472V181.295H452.399H449.222H446.045H442.868V184.472V187.649H446.045H449.222H452.399ZM452.399 190.826H449.222H446.045H442.868H439.691H436.514V187.649V184.472V181.295V178.118V174.941V171.764V168.587V165.41H439.691H442.868H446.045H449.222H452.399H455.576V168.587H458.753V171.764V174.941V178.118H455.576V174.941V171.764V168.587H452.399H449.222H446.045H442.868V171.764V174.941V178.118H446.045H449.222H452.399H455.576V181.295H458.753V184.472V187.649H455.576V190.826H452.399ZM468.284 190.826H465.107V187.649V184.472H468.284H471.461V187.649V190.826H468.284ZM480.992 190.826H477.815V187.649V184.472H480.992H484.169V187.649V190.826H480.992ZM493.7 190.826H490.523V187.649V184.472H493.7H496.877V187.649V190.826H493.7ZM506.408 190.826H503.231V187.649V184.472H506.408H509.585V187.649V190.826H506.408ZM519.116 190.826H515.939V187.649V184.472H519.116H522.294V187.649V190.826H519.116ZM544.533 190.826H541.356H538.179H535.002H531.825V187.649H528.648V184.472V181.295H531.825H535.002V184.472V187.649H538.179H541.356H544.533V184.472V181.295V178.118H541.356H538.179H535.002H531.825V174.941H535.002H538.179H541.356H544.533V171.764V168.587H541.356H538.179H535.002V171.764H531.825H528.648V168.587H531.825V165.41H535.002H538.179H541.356H544.533H547.71V168.587H550.887V171.764V174.941H547.71V178.118H550.887V181.295V184.472V187.649H547.71V190.826H544.533ZM576.303 190.826H573.126H569.949H566.772H563.595H560.418V187.649H557.241V184.472H560.418V181.295H563.595H566.772H569.949H573.126V178.118V174.941H569.949H566.772H563.595V178.118H560.418H557.241V174.941H560.418V171.764H563.595H566.772H569.949H573.126H576.303V174.941H579.48V178.118V181.295V184.472V187.649V190.826H576.303ZM569.949 187.649H573.126V184.472H569.949H566.772H563.595H560.418V187.649H563.595H566.772H569.949ZM604.896 187.649H608.073V190.826H604.896H601.719H598.542H595.365H592.188H589.011H585.834V187.649V184.472V181.295H589.011V178.118H592.188H595.365H598.542H601.719V174.941V171.764V168.587H598.542H595.365H592.188V171.764H589.011H585.834V168.587H589.011V165.41H592.188H595.365H598.542H601.719H604.896V168.587H608.073V171.764V174.941V178.118H604.896V181.295H601.719H598.542H595.365H592.188V184.472V187.649H595.365H598.542H601.719H604.896ZM617.604 190.826H614.427V187.649V184.472V181.295V178.118V174.941V171.764V168.587V165.41H617.604H620.781H623.958H627.135H630.312H633.489H636.666V168.587H633.489H630.312H627.135H623.958H620.781V171.764V174.941H623.958H627.135H630.312H633.489H636.666V178.118H633.489H630.312H627.135H623.958H620.781V181.295V184.472V187.649V190.826H617.604ZM658.905 190.826V187.649H662.082V190.826H658.905ZM646.197 190.826H643.02V187.649V184.472V181.295V178.118V174.941V171.764V168.587V165.41V162.233H646.197H649.374V165.41V168.587V171.764V174.941V178.118H652.551V181.295H655.728V184.472H658.905V187.649H655.728V184.472H652.551V181.295H649.374V184.472V187.649V190.826H646.197ZM652.551 178.118V174.941H655.728V178.118H652.551ZM655.728 174.941V171.764H658.905V174.941H655.728ZM658.905 171.764V168.587H662.082V171.764H658.905Z" fill="#90FFDE"/>
</g>
<defs>
<filter id="filter0_d_365_6242" x="199.912" y="151.326" width="592.194" height="70.2415" filterUnits="userSpaceOnUse" color-interpolation-filters="sRGB">
<feFlood flood-opacity="0" result="BackgroundImageFix"/>
<feColorMatrix in="SourceAlpha" type="matrix" values="0 0 0 0 0 0 0 0 0 0 0 0 0 0 0 0 0 0 127 0" result="hardAlpha"/>
<feOffset dx="4.23602" dy="8.47205"/>
<feGaussianBlur stdDeviation="4.23602"/>
<feComposite in2="hardAlpha" operator="out"/>
<feColorMatrix type="matrix" values="0 0 0 0 0 0 0 0 0 0 0 0 0 0 0 0 0 0 0.2 0"/>
<feBlend mode="normal" in2="BackgroundImageFix" result="effect1_dropShadow_365_6242"/>
<feBlend mode="normal" in="SourceGraphic" in2="effect1_dropShadow_365_6242" result="shape"/>
</filter>
<filter id="filter1_i_365_6242" x="220.56" y="131.528" width="544.02" height="86.4193" filterUnits="userSpaceOnUse" color-interpolation-filters="sRGB">
<feFlood flood-opacity="0" result="BackgroundImageFix"/>
<feBlend mode="normal" in="SourceGraphic" in2="BackgroundImageFix" result="shape"/>
<feColorMatrix in="SourceAlpha" type="matrix" values="0 0 0 0 0 0 0 0 0 0 0 0 0 0 0 0 0 0 127 0" result="hardAlpha"/>
<feOffset dy="-8.47205"/>
<feGaussianBlur stdDeviation="4.23602"/>
<feComposite in2="hardAlpha" operator="arithmetic" k2="-1" k3="1"/>
<feColorMatrix type="matrix" values="0 0 0 0 0 0 0 0 0 0 0 0 0 0 0 0 0 0 0.25 0"/>
<feBlend mode="normal" in2="shape" result="effect1_innerShadow_365_6242"/>
</filter>
<filter id="filter2_f_365_6242" x="200.673" y="134.193" width="579.702" height="82.2332" filterUnits="userSpaceOnUse" color-interpolation-filters="sRGB">
<feFlood flood-opacity="0" result="BackgroundImageFix"/>
<feBlend mode="normal" in="SourceGraphic" in2="BackgroundImageFix" result="shape"/>
<feGaussianBlur stdDeviation="4.23602" result="effect1_foregroundBlur_365_6242"/>
</filter>
<filter id="filter3_d_365_6242" x="208.032" y="145.33" width="576.579" height="82.2332" filterUnits="userSpaceOnUse" color-interpolation-filters="sRGB">
<feFlood flood-opacity="0" result="BackgroundImageFix"/>
<feColorMatrix in="SourceAlpha" type="matrix" values="0 0 0 0 0 0 0 0 0 0 0 0 0 0 0 0 0 0 127 0" result="hardAlpha"/>
<feOffset dx="4.23602" dy="8.47205"/>
<feGaussianBlur stdDeviation="4.23602"/>
<feComposite in2="hardAlpha" operator="out"/>
<feColorMatrix type="matrix" values="0 0 0 0 0 0 0 0 0 0 0 0 0 0 0 0 0 0 0.2 0"/>
<feBlend mode="normal" in2="BackgroundImageFix" result="effect1_dropShadow_365_6242"/>
<feBlend mode="normal" in="SourceGraphic" in2="effect1_dropShadow_365_6242" result="shape"/>
</filter>
<filter id="filter4_d_365_6242" x="206.148" y="151.019" width="576.605" height="68.7971" filterUnits="userSpaceOnUse" color-interpolation-filters="sRGB">
<feFlood flood-opacity="0" result="BackgroundImageFix"/>
<feColorMatrix in="SourceAlpha" type="matrix" values="0 0 0 0 0 0 0 0 0 0 0 0 0 0 0 0 0 0 127 0" result="hardAlpha"/>
<feOffset dx="4.23602" dy="8.47205"/>
<feGaussianBlur stdDeviation="4.23602"/>
<feComposite in2="hardAlpha" operator="out"/>
<feColorMatrix type="matrix" values="0 0 0 0 0 0 0 0 0 0 0 0 0 0 0 0 0 0 0.2 0"/>
<feBlend mode="normal" in2="BackgroundImageFix" result="effect1_dropShadow_365_6242"/>
<feBlend mode="normal" in="SourceGraphic" in2="effect1_dropShadow_365_6242" result="shape"/>
</filter>
<filter id="filter5_i_365_6242" x="226.351" y="131.528" width="529.277" height="84.307" filterUnits="userSpaceOnUse" color-interpolation-filters="sRGB">
<feFlood flood-opacity="0" result="BackgroundImageFix"/>
<feBlend mode="normal" in="SourceGraphic" in2="BackgroundImageFix" result="shape"/>
<feColorMatrix in="SourceAlpha" type="matrix" values="0 0 0 0 0 0 0 0 0 0 0 0 0 0 0 0 0 0 127 0" result="hardAlpha"/>
<feOffset dy="-8.47205"/>
<feGaussianBlur stdDeviation="4.23602"/>
<feComposite in2="hardAlpha" operator="arithmetic" k2="-1" k3="1"/>
<feColorMatrix type="matrix" values="0 0 0 0 0 0 0 0 0 0 0 0 0 0 0 0 0 0 0.25 0"/>
<feBlend mode="normal" in2="shape" result="effect1_innerShadow_365_6242"/>
</filter>
<filter id="filter6_f_365_6242" x="206.773" y="134.121" width="564.451" height="80.4636" filterUnits="userSpaceOnUse" color-interpolation-filters="sRGB">
<feFlood flood-opacity="0" result="BackgroundImageFix"/>
<feBlend mode="normal" in="SourceGraphic" in2="BackgroundImageFix" result="shape"/>
<feGaussianBlur stdDeviation="4.23602" result="effect1_foregroundBlur_365_6242"/>
</filter>
<filter id="filter7_d_365_6242" x="214.048" y="145.186" width="561.413" height="80.4636" filterUnits="userSpaceOnUse" color-interpolation-filters="sRGB">
<feFlood flood-opacity="0" result="BackgroundImageFix"/>
<feColorMatrix in="SourceAlpha" type="matrix" values="0 0 0 0 0 0 0 0 0 0 0 0 0 0 0 0 0 0 127 0" result="hardAlpha"/>
<feOffset dx="4.23602" dy="8.47205"/>
<feGaussianBlur stdDeviation="4.23602"/>
<feComposite in2="hardAlpha" operator="out"/>
<feColorMatrix type="matrix" values="0 0 0 0 0 0 0 0 0 0 0 0 0 0 0 0 0 0 0.2 0"/>
<feBlend mode="normal" in2="BackgroundImageFix" result="effect1_dropShadow_365_6242"/>
<feBlend mode="normal" in="SourceGraphic" in2="effect1_dropShadow_365_6242" result="shape"/>
</filter>
<linearGradient id="paint0_linear_365_6242" x1="162.743" y1="56.5813" x2="162.743" y2="130.107" gradientUnits="userSpaceOnUse">
<stop offset="0.28125" stop-color="#CE4599"/>
<stop offset="0.625" stop-color="#017BFF"/>
<stop offset="1" stop-color="#09061A"/>
</linearGradient>
<linearGradient id="paint1_linear_365_6242" x1="168.195" y1="139.361" x2="728.033" y2="241.499" gradientUnits="userSpaceOnUse">
<stop stop-color="#E83E8C"/>
<stop offset="0.536458" stop-color="#7C5AC1"/>
<stop offset="1" stop-color="#007BFF"/>
</linearGradient>
<linearGradient id="paint2_linear_365_6242" x1="186.386" y1="117.675" x2="727.067" y2="176.439" gradientUnits="userSpaceOnUse">
<stop stop-color="#E83E8C"/>
<stop offset="0.510417" stop-color="#7C5AC1"/>
<stop offset="1" stop-color="#007BFF"/>
</linearGradient>
<linearGradient id="paint3_linear_365_6242" x1="177.291" y1="130.673" x2="728.489" y2="210.536" gradientUnits="userSpaceOnUse">
<stop stop-color="#E83E8C"/>
<stop offset="0.536458" stop-color="#7C5AC1"/>
<stop offset="1" stop-color="#007BFF"/>
</linearGradient>
<clipPath id="clip0_365_6242">
<rect width="341" height="88.9565" fill="white" transform="translate(185 140)"/>
</clipPath>
</defs>
</svg>
