<svg xmlns="http://www.w3.org/2000/svg" viewBox="0 0 1397.77 439.49"><defs><style>.f7dc157e-6a8c-4261-988b-2688d322c4e3{fill:none;}.bf6691b0-9795-492a-b229-06b2b8cb1867,.f7dc157e-6a8c-4261-988b-2688d322c4e3{stroke:#fff;stroke-width:2.46px;}.bf6691b0-9795-492a-b229-06b2b8cb1867{fill:#d9d9d8;}</style></defs><title>walletfoooter_svg</title><g id="b50f5180-c00f-4e16-8645-53124ba283d4" data-name="Layer 2"><g id="bc52fb67-0da1-477f-971f-4294d18de73c" data-name="Layer 1"><g id="bbf92e12-7527-4cd8-8a3a-ac78e9bf7daa" data-name="a8f4536f-4723-4ec0-bce1-f20f02d2155d"><g id="f0685367-9ab2-4f99-8f77-6dfb8f27ef24" data-name="a7eb9895-d458-447e-9a80-5dde3d3a6723"><path class="f7dc157e-6a8c-4261-988b-2688d322c4e3" d="M748.64,10.61h647.9V438.26H1.23V10.61H34.4"/><path class="bf6691b0-9795-492a-b229-06b2b8cb1867" d="M767.67,11.15c-.19,5.32-6,9.51-12.88,9.37s-12.37-4.59-12.18-9.91,6-9.52,12.88-9.37c6.65.14,12,4.25,12.18,9.37Z"/><path class="bf6691b0-9795-492a-b229-06b2b8cb1867" d="M52.33,12.23c0,5.36-5.66,9.71-12.64,9.71s-12.63-4.35-12.63-9.71a7.31,7.31,0,0,1,.17-1.62c1.13-5.3,7.63-8.89,14.52-8C47.87,3.37,52.35,7.45,52.33,12.23Z"/></g></g></g></g></svg>