<?xml version="1.0" encoding="utf-8"?>
<!-- Generator: Adobe Illustrator 23.0.3, SVG Export Plug-In . SVG Version: 6.00 Build 0)  -->
<svg version="1.1" id="Layer_1" xmlns="http://www.w3.org/2000/svg" xmlns:xlink="http://www.w3.org/1999/xlink" x="0px" y="0px"
	 viewBox="0 0 38.8 33" style="enable-background:new 0 0 38.8 33;" xml:space="preserve">
<style type="text/css">
	.st0{fill:url(#SVGID_1_);}
	.st1{fill:url(#SVGID_2_);}
	.st2{fill:url(#SVGID_3_);}
</style>
<title>walletAsset 1</title>
<linearGradient id="SVGID_1_" gradientUnits="userSpaceOnUse" x1="2.6918" y1="-358.5151" x2="36.1036" y2="-358.5151" gradientTransform="matrix(-1 0 0 1 38.8 375.1)">
	<stop  offset="9.278351e-02" style="stop-color:#4374BA"/>
	<stop  offset="0.4379" style="stop-color:#765DA8"/>
	<stop  offset="0.7281" style="stop-color:#E73F8C"/>
</linearGradient>
<path class="st0" d="M36.4,18.8h-34c-1.1,0-2-0.6-2-1.2v-2.1c0-0.6,0.9-1.2,2-1.2h34c1.1,0,2,0.6,2,1.2v2.1
	C38.4,18.3,37.5,18.8,36.4,18.8z"/>
<linearGradient id="SVGID_2_" gradientUnits="userSpaceOnUse" x1="2.6918" y1="-367.6225" x2="36.9809" y2="-367.6225" gradientTransform="matrix(-1 0 0 1 38.8 375.1)">
	<stop  offset="0" style="stop-color:#4374BA"/>
	<stop  offset="0.2159" style="stop-color:#765DA8"/>
	<stop  offset="0.5501" style="stop-color:#E73F8C"/>
</linearGradient>
<path class="st1" d="M36.5,10H2.3c-1,0-1.9-0.6-1.9-1.3l0,0C0.4,6.7,2.9,5,6,5h26.8c3.1,0,5.6,1.7,5.6,3.7l0,0
	C38.4,9.4,37.5,10,36.5,10z"/>
<linearGradient id="SVGID_3_" gradientUnits="userSpaceOnUse" x1="-1409.6" y1="34.4226" x2="-1371.6" y2="34.4226" gradientTransform="matrix(1 0 0 -1 1410 60.08)">
	<stop  offset="0" style="stop-color:#E73F8C"/>
	<stop  offset="7.026350e-02" style="stop-color:#D54490"/>
	<stop  offset="0.2103" style="stop-color:#A7509C"/>
	<stop  offset="0.3412" style="stop-color:#765DA8"/>
	<stop  offset="0.3849" style="stop-color:#725FA9"/>
	<stop  offset="0.9629" style="stop-color:#4374BA"/>
</linearGradient>
<path class="st2" d="M2.3,23.2h34.2c1,0,1.9,0.6,1.9,1.3l0,0c0,2-2.5,3.6-5.6,3.6H6.1c-3.1,0-5.6-1.7-5.6-3.7l0,0
	C0.4,23.8,1.3,23.2,2.3,23.2z"/>
</svg>
