<svg width="375" height="647" viewBox="0 0 375 647" fill="none" xmlns="http://www.w3.org/2000/svg">
<path d="M438.846 530.251V0H-177V531H-176.145V580.66V630.32H-174.075V608.084H-158.811V630.32H-141.482V608.084H-124.148V580.289H-106.819V620.917H-89.4857V644.009H-72.1565V630.32H-54.823V612.785H-37.4895V597.817H-20.1602V630.32H-2.82675V644.009H14.5025V608.084H31.836V587.126H49.1652V635.03H66.4987V617.495H83.8279V644.009H101.161V630.32H118.495V612.785H135.824V597.817H153.158V630.32H170.487V647H187.82V630.32H198.427V608.084H213.69V630.32H231.019V608.084H248.353V580.289H265.682V620.917H283.016V644.009H300.345V630.32H317.678V612.785H335.012V597.817H352.341V630.32H369.675V644.009H387.004V608.084H404.337V587.126H421.667V635.03H439V530.251H438.846Z" fill="black" fill-opacity="0.85"/>
</svg>
