<svg width="1440" height="796" viewBox="0 0 1440 796" fill="none" xmlns="http://www.w3.org/2000/svg">
<path d="M1442.78 226.126L1442.76 226.126L1442.18 34.5277L1442.17 32.5277L1440.17 32.5337L1435.29 32.5485L1433.29 32.5546L1433.3 34.5546L1433.43 75.8993L1401.44 75.9962L1401.32 34.6515L1401.31 32.6515L1399.31 32.6575L1358.46 32.7813L1356.46 32.7873L1356.47 34.7873L1356.59 76.1321L1317.73 76.2498L1315.73 76.2559L1315.74 78.2559L1315.9 130.434L1279.05 130.545L1278.81 53.353L1278.81 51.353L1276.81 51.3591L1237.95 51.4768L1237.82 8.46418L1237.81 6.46419L1235.81 6.47024L1194.96 6.594L1192.96 6.60006L1192.97 8.60005L1193.04 33.2824L1154.18 33.4002L1152.18 33.4062L1152.19 35.4062L1152.29 67.5859L1113.43 67.7036L1111.43 67.7097L1111.43 69.7097L1111.51 96.8865L1074.66 96.9982L1074.48 35.6416L1074.47 33.6417L1072.47 33.6477L1033.61 33.7654L1033.54 9.08306L1033.53 7.08307L1031.53 7.08913L990.68 7.21289L988.68 7.21895L988.686 9.21894L988.892 77.2461L950.032 77.3638L948.032 77.3699L948.038 79.3699L948.156 118.22L911.305 118.332L911.028 26.9577L911.022 24.9577L909.022 24.9638L868.162 25.0876L866.162 25.0936L866.168 27.0936L866.266 59.2734L829.416 59.385L829.265 9.70192L829.259 7.70193L827.259 7.70799L786.399 7.83178L784.399 7.83784L784.405 9.83783L784.48 34.5202L745.619 34.6379L743.619 34.644L743.625 36.644L743.723 68.8237L704.873 68.9414L702.873 68.9474L702.879 70.9474L702.961 98.1243L666.101 98.236L665.915 36.8794L665.909 34.8794L663.909 34.8855L625.059 35.0032L624.966 4.49088L624.96 2.49089L622.96 2.49695L582.1 2.62074L580.1 2.6268L580.106 4.62679L580.198 35.1391L557.196 35.2088L555.196 35.2148L555.202 37.2148L555.328 78.5596L523.347 78.6565L523.221 37.3117L523.215 35.3117L521.215 35.3178L480.365 35.4416L478.365 35.4476L478.371 37.4476L478.497 78.7924L439.636 78.9101L437.636 78.9162L437.642 80.9162L437.8 133.094L400.95 133.206L400.716 56.0133L400.71 54.0133L398.71 54.0193L359.85 54.1371L359.72 11.1245L359.714 9.12446L357.714 9.13052L316.863 9.25428L314.863 9.26034L314.87 11.2603L314.944 35.9427L276.084 36.0604L274.084 36.0665L274.09 38.0665L274.188 70.2462L235.327 70.3639L233.327 70.3699L233.333 72.3699L233.416 99.5468L196.566 99.6585L196.38 38.3019L196.374 36.3019L194.374 36.308L155.513 36.4257L155.439 11.7433L155.432 9.74335L153.432 9.74941L112.582 9.87317L110.582 9.87923L110.588 11.8792L110.794 79.9064L71.9342 80.0241L69.9342 80.0302L69.9402 82.0302L70.0579 120.881L33.2078 120.992L32.9309 29.618L32.9249 27.618L30.9249 27.6241L-9.93539 27.7478L-11.9354 27.7539L-11.9293 29.7539L-11.3106 233.992L-11.3045 235.992L-10.9416 235.991L-7.81633 1267.57L-7.81027 1269.57L-5.81028 1269.57L1445.92 1265.17L1447.92 1265.16L1447.92 1263.16L1444.78 228.12L1444.78 226.12L1442.78 226.126Z" fill="black" fill-opacity="0.85" stroke="#6549FA" stroke-width="4"/>
</svg>
