<svg width="374" height="492" viewBox="0 0 374 492" fill="none" xmlns="http://www.w3.org/2000/svg">
<path d="M439.824 97.675L439.636 97.675L439.636 56.9899L439.636 15.8061L439.636 15.3074L439.137 15.3074L437.475 15.3074L436.976 15.3074L436.976 15.8061L436.976 33.7487L425.716 33.7487L425.716 15.8061L425.716 15.3074L425.218 15.3074L411.301 15.3074L410.803 15.3074L410.803 15.8061L410.803 33.7487L397.382 33.7487L396.883 33.7487L396.883 34.2474L396.883 56.799L383.964 56.799L383.964 23.6047L383.964 23.1061L383.465 23.1061L370.045 23.1061L370.045 4.45385L370.045 3.95519L369.546 3.95519L355.63 3.95519L355.131 3.95519L355.131 4.45385L355.131 15.3074L341.71 15.3074L341.211 15.3074L341.211 15.8061L341.211 29.8494L327.79 29.8494L327.292 29.8494L327.292 30.348L327.292 42.2628L314.373 42.2628L314.373 15.8061L314.373 15.3074L313.874 15.3074L300.453 15.3074L300.453 4.45385L300.453 3.95519L299.955 3.95519L286.038 3.95519L285.54 3.95519L285.54 4.45384L285.54 33.7487L272.119 33.7487L271.62 33.7487L271.62 34.2474L271.62 51.1288L258.701 51.1288L258.701 11.9007L258.701 11.4021L258.203 11.4021L244.283 11.4021L243.784 11.4021L243.784 11.9007L243.784 25.9441L230.865 25.9441L230.865 4.45384L230.865 3.95518L230.367 3.95518L216.447 3.95518L215.948 3.95518L215.948 4.45384L215.948 15.3074L202.528 15.3074L202.029 15.3074L202.029 15.8061L202.029 29.8494L188.611 29.8494L188.113 29.8494L188.113 30.348L188.113 42.2628L175.19 42.2628L175.19 15.8061L175.19 15.3074L174.692 15.3074L161.274 15.3074L161.274 1.97349L161.274 1.47483L160.776 1.47483L146.856 1.47483L146.357 1.47483L146.357 1.97349L146.357 15.3074L138.339 15.3074L137.84 15.3074L137.84 15.8061L137.84 33.7487L126.58 33.7487L126.58 15.8061L126.58 15.3074L126.081 15.3074L112.165 15.3074L111.666 15.3074L111.666 15.8061L111.666 33.7487L98.2453 33.7487L97.7467 33.7487L97.7467 34.2473L97.7467 56.799L84.8278 56.799L84.8278 23.6047L84.8278 23.106L84.3292 23.106L70.9082 23.106L70.9082 4.45383L70.9082 3.95517L70.4096 3.95517L56.4934 3.95517L55.9947 3.95517L55.9947 4.45382L55.9947 15.3074L42.5737 15.3074L42.0751 15.3074L42.0751 15.8061L42.0751 29.8494L28.6541 29.8494L28.1555 29.8494L28.1555 30.348L28.1555 42.2628L15.2366 42.2628L15.2366 15.8061L15.2366 15.3074L14.7379 15.3074L1.31694 15.3074L1.31694 4.45382L1.31694 3.95516L0.818284 3.95516L-13.0979 3.95516L-13.5966 3.95516L-13.5966 4.45382L-13.5966 33.7487L-27.0175 33.7487L-27.5162 33.7487L-27.5162 34.2473L-27.5162 51.1288L-40.435 51.1288L-40.435 11.9007L-40.435 11.4021L-40.9337 11.4021L-54.8533 11.4021L-55.352 11.4021L-55.352 11.9007L-55.352 98.7952L-55.352 99.2938L-55.2284 99.2938L-55.2284 538.539L-55.2284 539.037L-54.7298 539.037L439.824 539.037L440.323 539.037L440.323 538.539L440.323 98.1737L440.323 97.675L439.824 97.675Z" fill="black" fill-opacity="0.85" stroke="#6549FA" stroke-width="0.997333"/>
</svg>
