<svg width="411" height="119" viewBox="0 0 411 119" fill="none" xmlns="http://www.w3.org/2000/svg">
<path d="M50.3325 90.261V87.761V85.261H52.8325V87.761V90.261H50.3325ZM47.8325 100.261H50.3325V102.761H47.8325H45.3325H42.8325H40.3325H37.8325V100.261H35.3325V97.761V95.261V92.761V90.261V87.761V85.261H37.8325V82.761H40.3325H42.8325H45.3325H47.8325H50.3325V85.261H47.8325H45.3325H42.8325H40.3325V87.761V90.261V92.761V95.261V97.761V100.261H42.8325H45.3325H47.8325ZM50.3325 100.261V97.761V95.261H52.8325V97.761V100.261H50.3325ZM70.3325 102.761H67.8325H65.3325H62.8325H60.3325V100.261H57.8325V97.761V95.261V92.761V90.261H60.3325V87.761H62.8325H65.3325H67.8325H70.3325H72.8325V90.261H75.3325V92.761V95.261V97.761V100.261H72.8325V102.761H70.3325ZM67.8325 100.261H70.3325V97.761V95.261V92.761V90.261H67.8325H65.3325H62.8325V92.761V95.261V97.761V100.261H65.3325H67.8325ZM97.8325 102.761V100.261V97.761V95.261V92.761V90.261H100.333V92.761V95.261V97.761V100.261V102.761H97.8325ZM90.3325 102.761V100.261V97.761V95.261V92.761V90.261H92.8325V92.761V95.261V97.761V100.261V102.761H90.3325ZM82.8325 102.761H80.3325V100.261V97.761V95.261V92.761V90.261V87.761H82.8325H85.3325H87.8325H90.3325V90.261H87.8325H85.3325V92.761V95.261V97.761V100.261V102.761H82.8325ZM97.8325 90.261H95.3325H92.8325V87.761H95.3325H97.8325V90.261ZM107.833 110.261H105.333V107.761V105.261V102.761V100.261V97.761V95.261V92.761V90.261V87.761H107.833H110.333H112.833H115.333H117.833H120.333V90.261H122.833V92.761V95.261V97.761V100.261H120.333V102.761H117.833H115.333H112.833H110.333V105.261V107.761V110.261H107.833ZM115.333 100.261H117.833V97.761V95.261V92.761V90.261H115.333H112.833H110.333V92.761V95.261V97.761V100.261H112.833H115.333ZM132.833 102.761H130.333V100.261V97.761V95.261V92.761V90.261V87.761V85.261V82.761H127.833V80.261H130.333H132.833H135.333V82.761V85.261V87.761V90.261V92.761V95.261V97.761V100.261V102.761H132.833ZM152.833 100.261H155.333V102.761H152.833H150.333H147.833H145.333H142.833V100.261H140.333V97.761V95.261V92.761V90.261H142.833V87.761H145.333H147.833H150.333H152.833H155.333V90.261H152.833H150.333H147.833H145.333V92.761H147.833H150.333H152.833H155.333V90.261H157.833V92.761V95.261H155.333H152.833H150.333H147.833H145.333V97.761V100.261H147.833H150.333H152.833ZM155.333 100.261V97.761H157.833V100.261H155.333ZM177.833 102.761H175.333H172.833H170.333H167.833V100.261H165.333V97.761V95.261V92.761V90.261H162.833V87.761H165.333V85.261V82.761H167.833H170.333V85.261V87.761H172.833H175.333V90.261H172.833H170.333V92.761V95.261V97.761V100.261H172.833H175.333H177.833V97.761H180.333H182.833V100.261H180.333V102.761H177.833ZM200.333 100.261H202.833V102.761H200.333H197.833H195.333H192.833H190.333V100.261H187.833V97.761V95.261V92.761V90.261H190.333V87.761H192.833H195.333H197.833H200.333H202.833V90.261H200.333H197.833H195.333H192.833V92.761H195.333H197.833H200.333H202.833V90.261H205.333V92.761V95.261H202.833H200.333H197.833H195.333H192.833V97.761V100.261H195.333H197.833H200.333ZM202.833 100.261V97.761H205.333V100.261H202.833ZM225.333 102.761H222.833H220.333H217.833H215.333H212.833V100.261H210.333V97.761V95.261V92.761V90.261H212.833V87.761H215.333H217.833H220.333H222.833V85.261V82.761V80.261H225.333H227.833V82.761V85.261V87.761V90.261V92.761V95.261V97.761V100.261V102.761H225.333ZM220.333 100.261H222.833V97.761V95.261V92.761V90.261H220.333H217.833H215.333V92.761V95.261V97.761V100.261H217.833H220.333ZM255.333 102.761H252.833V100.261V97.761V95.261V92.761V90.261V87.761V85.261H250.333H247.833H245.333V82.761H247.833H250.333H252.833H255.333H257.833H260.333H262.833H265.333V85.261H262.833H260.333H257.833V87.761V90.261V92.761V95.261V97.761V100.261V102.761H255.333ZM272.833 102.761H270.333V100.261V97.761V95.261V92.761V90.261V87.761H272.833V90.261H275.333V92.761V95.261V97.761V100.261V102.761H272.833ZM282.833 87.761H285.333V90.261H282.833H280.333H277.833H275.333V87.761H277.833H280.333H282.833ZM305.333 102.761H302.833H300.333H297.833H295.333H292.833V100.261H290.333V97.761H292.833V95.261H295.333H297.833H300.333H302.833V92.761V90.261H300.333H297.833H295.333V92.761H292.833H290.333V90.261H292.833V87.761H295.333H297.833H300.333H302.833H305.333V90.261H307.833V92.761V95.261V97.761V100.261V102.761H305.333ZM300.333 100.261H302.833V97.761H300.333H297.833H295.333H292.833V100.261H295.333H297.833H300.333ZM327.833 102.761H325.333H322.833H320.333H317.833H315.333V100.261H312.833V97.761V95.261V92.761V90.261H315.333V87.761H317.833H320.333H322.833H325.333V85.261V82.761V80.261H327.833H330.333V82.761V85.261V87.761V90.261V92.761V95.261V97.761V100.261V102.761H327.833ZM322.833 100.261H325.333V97.761V95.261V92.761V90.261H322.833H320.333H317.833V92.761V95.261V97.761V100.261H320.333H322.833ZM347.833 100.261H350.333V102.761H347.833H345.333H342.833H340.333H337.833V100.261H335.333V97.761V95.261V92.761V90.261H337.833V87.761H340.333H342.833H345.333H347.833H350.333V90.261H347.833H345.333H342.833H340.333V92.761H342.833H345.333H347.833H350.333V90.261H352.833V92.761V95.261H350.333H347.833H345.333H342.833H340.333V97.761V100.261H342.833H345.333H347.833ZM350.333 100.261V97.761H352.833V100.261H350.333ZM370.333 102.761H367.833H365.333H362.833H360.333V100.261H357.833V97.761H360.333H362.833V100.261H365.333H367.833H370.333V97.761V95.261H367.833H365.333H362.833H360.333V92.761H357.833V90.261H360.333V87.761H362.833H365.333H367.833H370.333H372.833V90.261H370.333H367.833H365.333H362.833V92.761H365.333H367.833H370.333H372.833V95.261H375.333V97.761V100.261H372.833V102.761H370.333Z" fill="white"/>
<path d="M95 71.7405H129.921V2H276.587V71.7405H315" stroke="white" stroke-width="2.54348"/>
<path d="M109.692 117L294.826 117" stroke="white" stroke-width="2.54348"/>
</svg>
