<svg width="410" height="121" viewBox="0 0 410 121" fill="none" xmlns="http://www.w3.org/2000/svg">
<path d="M72.7392 104.761H70.1957V102.218V99.674V97.1306V94.5871V92.0436V89.5001V86.9566H67.6522H65.1087H62.5653V84.4132H65.1087H67.6522H70.1957H72.7392H75.2827H77.8261H80.3696H82.9131V86.9566H80.3696H77.8261H75.2827V89.5001V92.0436V94.5871V97.1306V99.674V102.218V104.761H72.7392ZM90.5435 104.761H88.0001V102.218V99.674V97.1306V94.5871V92.0436V89.5001H90.5435V92.0436H93.087V94.5871V97.1306V99.674V102.218V104.761H90.5435ZM100.717 89.5001H103.261V92.0436H100.717H98.174H95.6305H93.087V89.5001H95.6305H98.174H100.717ZM123.609 104.761H121.065H118.522H115.978H113.435H110.891V102.218H108.348V99.674H110.891V97.1306H113.435H115.978H118.522H121.065V94.5871V92.0436H118.522H115.978H113.435V94.5871H110.891H108.348V92.0436H110.891V89.5001H113.435H115.978H118.522H121.065H123.609V92.0436H126.152V94.5871V97.1306V99.674V102.218V104.761H123.609ZM118.522 102.218H121.065V99.674H118.522H115.978H113.435H110.891V102.218H113.435H115.978H118.522ZM146.5 104.761H143.957H141.413H138.87H136.326H133.783V102.218H131.239V99.674V97.1306V94.5871V92.0436H133.783V89.5001H136.326H138.87H141.413H143.957V86.9566V84.4132V81.8697H146.5H149.044V84.4132V86.9566V89.5001V92.0436V94.5871V97.1306V99.674V102.218V104.761H146.5ZM141.413 102.218H143.957V99.674V97.1306V94.5871V92.0436H141.413H138.87H136.326V94.5871V97.1306V99.674V102.218H138.87H141.413ZM166.848 102.218H169.391V104.761H166.848H164.304H161.761H159.217H156.674V102.218H154.13V99.674V97.1306V94.5871V92.0436H156.674V89.5001H159.217H161.761H164.304H166.848H169.391V92.0436H166.848H164.304H161.761H159.217V94.5871H161.761H164.304H166.848H169.391V92.0436H171.935V94.5871V97.1306H169.391H166.848H164.304H161.761H159.217V99.674V102.218H161.761H164.304H166.848ZM169.391 102.218V99.674H171.935V102.218H169.391ZM192.283 104.761H189.739H187.196H184.652H182.109H179.565V102.218H177.022V99.674V97.1306V94.5871V92.0436H179.565V89.5001H182.109H184.652H187.196H189.739V86.9566V84.4132V81.8697H192.283H194.826V84.4132V86.9566V89.5001V92.0436V94.5871V97.1306V99.674V102.218V104.761H192.283ZM187.196 102.218H189.739V99.674V97.1306V94.5871V92.0436H187.196H184.652H182.109V94.5871V97.1306V99.674V102.218H184.652H187.196ZM227.891 104.761V102.218V99.674V97.1306H225.348H222.804H220.261H217.717V99.674V102.218V104.761H215.174H212.63V102.218V99.674V97.1306V94.5871V92.0436V89.5001V86.9566H215.174V84.4132H217.717H220.261H222.804H225.348H227.891V86.9566H225.348H222.804H220.261H217.717V89.5001V92.0436V94.5871H220.261H222.804H225.348H227.891V92.0436V89.5001V86.9566H230.435V89.5001V92.0436V94.5871V97.1306V99.674V102.218V104.761H227.891ZM248.239 104.761H245.696H243.152H240.609H238.065V102.218H235.522V99.674H238.065H240.609V102.218H243.152H245.696H248.239V99.674V97.1306H245.696H243.152H240.609H238.065V94.5871H235.522V92.0436H238.065V89.5001H240.609H243.152H245.696H248.239H250.783V92.0436H248.239H245.696H243.152H240.609V94.5871H243.152H245.696H248.239H250.783V97.1306H253.326V99.674V102.218H250.783V104.761H248.239ZM271.13 104.761H268.587H266.044H263.5H260.957V102.218H258.413V99.674H260.957H263.5V102.218H266.044H268.587H271.13V99.674V97.1306H268.587H266.044H263.5H260.957V94.5871H258.413V92.0436H260.957V89.5001H263.5H266.044H268.587H271.13H273.674V92.0436H271.13H268.587H266.044H263.5V94.5871H266.044H268.587H271.13H273.674V97.1306H276.217V99.674V102.218H273.674V104.761H271.13ZM294.022 102.218H296.565V104.761H294.022H291.478H288.935H286.391H283.848V102.218H281.304V99.674V97.1306V94.5871V92.0436H283.848V89.5001H286.391H288.935H291.478H294.022H296.565V92.0436H294.022H291.478H288.935H286.391V94.5871H288.935H291.478H294.022H296.565V92.0436H299.109V94.5871V97.1306H296.565H294.022H291.478H288.935H286.391V99.674V102.218H288.935H291.478H294.022ZM296.565 102.218V99.674H299.109V102.218H296.565ZM319.457 104.761H316.913H314.37H311.826H309.283V102.218H306.739V99.674V97.1306V94.5871V92.0436H304.196V89.5001H306.739V86.9566V84.4132H309.283H311.826V86.9566V89.5001H314.37H316.913V92.0436H314.37H311.826V94.5871V97.1306V99.674V102.218H314.37H316.913H319.457V99.674H322H324.543V102.218H322V104.761H319.457ZM342.348 104.761H339.804H337.261H334.717H332.174V102.218H329.63V99.674H332.174H334.717V102.218H337.261H339.804H342.348V99.674V97.1306H339.804H337.261H334.717H332.174V94.5871H329.63V92.0436H332.174V89.5001H334.717H337.261H339.804H342.348H344.891V92.0436H342.348H339.804H337.261H334.717V94.5871H337.261H339.804H342.348H344.891V97.1306H347.435V99.674V102.218H344.891V104.761H342.348Z" fill="white"/>
<path d="M96.5337 71.7405H131.454V2H278.121V71.7405H316.534" stroke="white" stroke-width="2.54348"/>
<path d="M96.5337 119L315.893 119" stroke="white" stroke-width="2.54348"/>
</svg>
