<svg width="1441" height="920" viewBox="0 0 1441 920" fill="none" xmlns="http://www.w3.org/2000/svg">
<path d="M1440.64 723.581L1441 0H0V724.842V807.766V891.938H6.84304V854.527H42.5489V891.938H83.0869V854.527H123.635V807.766H164.173V876.117H204.721V914.968H245.259V891.938H285.807V862.438H326.355V837.255H366.893V891.938H407.441V914.968H447.979V854.527H488.527V819.269H529.065V899.861H569.613V870.36H610.151V914.968H650.699V891.938H691.247V862.438H731.785V837.255H772.333V891.938H812.871V920H853.419V891.938H878.23V854.527H913.936V891.938H954.474V854.527H995.022V807.766H1035.56V876.117H1076.11V914.968H1116.65V891.938H1157.19V862.438H1197.74V837.255H1238.28V891.938H1278.83V914.968H1319.37V854.527H1359.91V819.269H1400.45V899.861H1441V723.581H1440.64Z" fill="black" fill-opacity="0.92"/>
</svg>
