<svg xmlns="http://www.w3.org/2000/svg" xmlns:xlink="http://www.w3.org/1999/xlink" viewBox="0 0 38 33"><defs><style>.f3decf22-1b2c-4455-8447-6f8c4f5ca273{fill:url(#bc5c4aeb-838f-43c7-963c-be250f7c8700);}.ab436ab8-1aea-49df-baab-66c8f9c308ad{fill:url(#ad19b756-bad2-442f-bc8c-c56d73d22549);}.f07c6fde-0386-4497-9e98-13c051e9ee1f{fill:url(#b0515e33-33c4-48c7-a601-95d2f6dc3dce);}</style><linearGradient id="bc5c4aeb-838f-43c7-963c-be250f7c8700" x1="2.29" y1="392.5" x2="35.7" y2="392.5" gradientTransform="translate(0 -376)" gradientUnits="userSpaceOnUse"><stop offset="0.09" stop-color="#4374ba"/><stop offset="0.44" stop-color="#765da8"/><stop offset="0.73" stop-color="#e73f8c"/></linearGradient><linearGradient id="ad19b756-bad2-442f-bc8c-c56d73d22549" x1="2.29" y1="405.49" x2="36.58" y2="405.49" gradientTransform="translate(0 -376)" gradientUnits="userSpaceOnUse"><stop offset="0" stop-color="#4374ba"/><stop offset="0.22" stop-color="#765da8"/><stop offset="0.55" stop-color="#e73f8c"/></linearGradient><linearGradient id="b0515e33-33c4-48c7-a601-95d2f6dc3dce" y1="379.51" x2="38" y2="379.51" gradientTransform="translate(38 383.02) rotate(180)" gradientUnits="userSpaceOnUse"><stop offset="0" stop-color="#e73f8c"/><stop offset="0.07" stop-color="#d54490"/><stop offset="0.21" stop-color="#a7509c"/><stop offset="0.34" stop-color="#765da8"/><stop offset="0.38" stop-color="#725fa9"/><stop offset="0.96" stop-color="#4374ba"/></linearGradient></defs><title>walletham-menu</title><g id="ba4b3f41-6d93-449d-91d3-9aff6858823c" data-name="Layer 2"><g id="f9901432-aae8-4ce4-bb94-518584757a34" data-name="Layer 1"><path class="f3decf22-1b2c-4455-8447-6f8c4f5ca273" d="M2,13.28H36A1.88,1.88,0,0,1,38,15v3a1.88,1.88,0,0,1-2,1.71H2A1.88,1.88,0,0,1,0,18V15A1.88,1.88,0,0,1,2,13.28Z"/><path class="ab436ab8-1aea-49df-baab-66c8f9c308ad" d="M1.9,26H36.1A1.84,1.84,0,0,1,38,27.75h0A5.46,5.46,0,0,1,32.36,33H5.64A5.46,5.46,0,0,1,0,27.75H0A1.84,1.84,0,0,1,1.9,26Z"/><path class="f07c6fde-0386-4497-9e98-13c051e9ee1f" d="M36.1,7H1.9A1.84,1.84,0,0,1,0,5.25H0A5.46,5.46,0,0,1,5.64,0H32.36A5.46,5.46,0,0,1,38,5.25h0A1.84,1.84,0,0,1,36.1,7Z"/></g></g></svg>